<svg width="95" height="66" viewBox="0 0 95 66" fill="none" xmlns="http://www.w3.org/2000/svg">
<g clip-path="url(#clip0_6306_1373)">
<path opacity="0.973" fill-rule="evenodd" clip-rule="evenodd" d="M54.1267 -0.015625C54.2311 -0.015625 54.3357 -0.015625 54.44 -0.015625C55.313 0.131656 55.83 0.644014 55.991 1.52145C56.0067 5.60984 56.012 9.69823 56.0067 13.7867C59.8602 13.7273 63.7141 13.6907 67.5683 13.6769C68.367 13.8594 68.8317 14.3561 68.9626 15.1669C68.973 26.0101 68.9836 36.8531 68.994 47.6964C69.0723 47.942 69.2343 48.1041 69.4796 48.1826C71.9236 48.1983 74.3675 48.2036 76.8114 48.1983C76.8114 48.5537 76.8114 48.9094 76.8114 49.2648C72.2892 49.2751 67.7667 49.2648 63.2445 49.2334C62.834 48.485 62.4164 47.7425 61.9912 47.0062C61.5303 47.7459 61.0813 48.4937 60.6439 49.2491C60.0899 49.2751 59.5366 49.2701 58.9833 49.2334C59.7158 48.096 60.4365 46.951 61.1452 45.7985C60.4809 44.7248 59.8123 43.6529 59.1399 42.5832C59.7036 42.5465 60.2676 42.5415 60.8319 42.5676C61.2116 43.2705 61.6033 43.966 62.0068 44.6536C62.3907 43.9584 62.7823 43.2683 63.1818 42.5832C63.7248 42.5415 64.2681 42.5415 64.8111 42.5832C64.1854 43.5808 63.5534 44.5742 62.9155 45.5633C62.8729 45.6373 62.8415 45.7104 62.8215 45.7829C63.3281 46.5828 63.8345 47.3827 64.3411 48.1826C65.5734 48.2036 66.806 48.2036 68.0383 48.1826C67.9801 48.048 67.9434 47.9068 67.9287 47.7591C67.9183 36.9158 67.9077 26.0728 67.8973 15.2296C67.7773 14.8692 67.5267 14.6915 67.1454 14.6964C63.4325 14.7492 59.7196 14.8015 56.0067 14.8532C56.012 25.8114 56.0067 36.7697 55.991 47.7277C55.8469 48.5621 55.3612 49.0694 54.534 49.2491C53.5693 49.3809 52.8853 49.0095 52.4818 48.1355C52.4304 47.9721 52.3991 47.8046 52.3878 47.6336C52.3668 36.9055 52.3668 26.1773 52.3878 15.4492C52.4388 14.8289 52.7262 14.3531 53.2494 14.0219C53.4177 13.9326 53.595 13.8698 53.7821 13.8337C54.1681 13.8065 54.5544 13.7908 54.9414 13.7867C54.9467 9.71916 54.9414 5.65165 54.9257 1.58418C54.8405 1.25339 54.6265 1.07564 54.2834 1.05092C49.6922 2.49771 45.107 3.9668 40.5284 5.45823C40.3439 5.54895 40.2132 5.69011 40.1368 5.88171C40.1264 10.9636 40.1421 16.0453 40.1838 21.127C40.5288 21.1217 40.8734 21.127 41.2178 21.1426C42.0064 21.3047 42.4814 21.7805 42.6434 22.5699C42.6644 30.9872 42.6644 39.4046 42.6434 47.8218C42.3933 48.8247 41.751 49.3002 40.7164 49.2491C39.8297 49.0722 39.3334 48.5339 39.2281 47.6336C39.1921 39.143 39.1558 30.6526 39.1185 22.1621C35.4109 22.103 31.7033 22.0664 27.9955 22.0523C27.7365 22.1339 27.5746 22.3064 27.5098 22.5699C27.4994 30.9872 27.4889 39.4046 27.4785 47.8218C27.4607 47.9486 27.4241 48.0687 27.3688 48.1826C29.0816 48.1983 30.7944 48.2036 32.5073 48.1983C32.5073 46.7239 32.5073 45.2496 32.5073 43.7752C31.8284 43.7752 31.1496 43.7752 30.4707 43.7752C30.4707 43.3885 30.4707 43.0014 30.4707 42.6146C32.2983 42.6146 34.1263 42.6146 35.9539 42.6146C35.9539 43.0014 35.9539 43.3885 35.9539 43.7752C35.2749 43.7752 34.5963 43.7752 33.9173 43.7752C33.9173 45.605 33.9173 47.4351 33.9173 49.2648C28.6534 49.2648 23.3896 49.2648 18.1257 49.2648C18.1257 48.9094 18.1257 48.5537 18.1257 48.1983C20.7264 48.2036 23.327 48.1983 25.9275 48.1826C26.1805 48.1267 26.3424 47.9752 26.4132 47.7277C26.4236 39.3522 26.4341 30.9768 26.4445 22.6013C26.5454 21.716 27.031 21.1775 27.9015 20.9858C31.6404 21.0102 35.3796 21.0468 39.1185 21.0956C39.0878 15.993 39.0721 10.8903 39.0715 5.78761C39.2018 5.15531 39.5621 4.7109 40.1524 4.45443C44.81 2.94713 49.4679 1.45711 54.1267 -0.015625ZM54.0327 14.8532C54.3357 14.8532 54.6384 14.8532 54.9414 14.8532C54.9467 25.8009 54.9414 36.7486 54.9257 47.6964C54.811 48.0546 54.5657 48.2218 54.1894 48.1983C53.7905 48.2105 53.5452 48.0223 53.4531 47.6336C53.4321 36.8951 53.4321 26.1564 53.4531 15.4178C53.5402 15.1162 53.7335 14.928 54.0327 14.8532ZM40.1838 22.1621C40.5322 22.1497 40.8769 22.1759 41.2178 22.2406C41.4054 22.324 41.5258 22.4651 41.5781 22.664C41.5991 31.0186 41.5991 39.3733 41.5781 47.7277C41.3425 48.2036 40.9928 48.3134 40.5284 48.0571C40.4053 47.9413 40.327 47.8002 40.2934 47.6336C40.2458 39.143 40.2095 30.6527 40.1838 22.1621Z" fill="black"/>
<path opacity="0.968" fill-rule="evenodd" clip-rule="evenodd" d="M44.4451 8.83008C46.4713 8.83008 48.4973 8.83008 50.5236 8.83008C50.5236 9.33198 50.5236 9.83388 50.5236 10.3358C48.4973 10.3358 46.4713 10.3358 44.4451 10.3358C44.4451 9.83388 44.4451 9.33198 44.4451 8.83008Z" fill="black"/>
<path opacity="0.968" fill-rule="evenodd" clip-rule="evenodd" d="M44.4451 11.748C46.4713 11.748 48.4973 11.748 50.5236 11.748C50.5236 12.2499 50.5236 12.7518 50.5236 13.2538C48.4973 13.2538 46.4713 13.2538 44.4451 13.2538C44.4451 12.7518 44.4451 12.2499 44.4451 11.748Z" fill="black"/>
<path opacity="0.994" fill-rule="evenodd" clip-rule="evenodd" d="M44.4451 14.6963C46.4713 14.6963 48.4973 14.6963 50.5236 14.6963C50.5236 15.1877 50.5236 15.6792 50.5236 16.1706C48.4973 16.1706 46.4713 16.1706 44.4451 16.1706C44.4451 15.6792 44.4451 15.1877 44.4451 14.6963Z" fill="black"/>
<path opacity="0.98" fill-rule="evenodd" clip-rule="evenodd" d="M58.5759 17.2686C59.3382 17.2686 60.1009 17.2686 60.8632 17.2686C60.8632 18.0319 60.8632 18.7952 60.8632 19.5585C60.1009 19.5585 59.3382 19.5585 58.5759 19.5585C58.5759 18.7952 58.5759 18.0319 58.5759 17.2686Z" fill="black"/>
<path opacity="0.98" fill-rule="evenodd" clip-rule="evenodd" d="M63.1191 17.2686C63.8815 17.2686 64.6441 17.2686 65.4064 17.2686C65.4064 18.0319 65.4064 18.7952 65.4064 19.5585C64.6441 19.5585 63.8815 19.5585 63.1191 19.5585C63.1191 18.7952 63.1191 18.0319 63.1191 17.2686Z" fill="black"/>
<path opacity="0.973" fill-rule="evenodd" clip-rule="evenodd" d="M44.4451 17.6133C46.4713 17.6133 48.4973 17.6133 50.5236 17.6133C50.5236 18.1152 50.5236 18.6171 50.5236 19.119C48.4973 19.119 46.4713 19.119 44.4451 19.119C44.4451 18.6171 44.4451 18.1152 44.4451 17.6133Z" fill="black"/>
<path opacity="0.994" fill-rule="evenodd" clip-rule="evenodd" d="M44.4451 20.5625C46.4713 20.5625 48.4973 20.5625 50.5236 20.5625C50.5236 21.054 50.5236 21.5454 50.5236 22.0368C48.4973 22.0368 46.4713 22.0368 44.4451 22.0368C44.4451 21.5454 44.4451 21.054 44.4451 20.5625Z" fill="black"/>
<path opacity="0.98" fill-rule="evenodd" clip-rule="evenodd" d="M58.5759 21.4092C59.3382 21.4092 60.1009 21.4092 60.8632 21.4092C60.8632 22.1725 60.8632 22.9358 60.8632 23.6991C60.1009 23.6991 59.3382 23.6991 58.5759 23.6991C58.5759 22.9358 58.5759 22.1725 58.5759 21.4092Z" fill="black"/>
<path opacity="0.98" fill-rule="evenodd" clip-rule="evenodd" d="M63.1191 21.4092C63.8815 21.4092 64.6441 21.4092 65.4064 21.4092C65.4064 22.1725 65.4064 22.9358 65.4064 23.6991C64.6441 23.6991 63.8815 23.6991 63.1191 23.6991C63.1191 22.9358 63.1191 22.1725 63.1191 21.4092Z" fill="black"/>
<path opacity="0.973" fill-rule="evenodd" clip-rule="evenodd" d="M44.4451 23.4795C46.4713 23.4795 48.4973 23.4795 50.5236 23.4795C50.5236 23.9814 50.5236 24.4833 50.5236 24.9852C48.4973 24.9852 46.4713 24.9852 44.4451 24.9852C44.4451 24.4833 44.4451 23.9814 44.4451 23.4795Z" fill="black"/>
<path opacity="0.973" fill-rule="evenodd" clip-rule="evenodd" d="M34.4187 24.3574C35.181 24.3574 35.9437 24.3574 36.706 24.3574C36.706 25.1207 36.706 25.884 36.706 26.6473C35.9437 26.6473 35.181 26.6473 34.4187 26.6473C34.4187 25.884 34.4187 25.1207 34.4187 24.3574Z" fill="black"/>
<path opacity="0.98" fill-rule="evenodd" clip-rule="evenodd" d="M29.9067 24.4209C30.6692 24.4209 31.4317 24.4209 32.194 24.4209C32.194 25.1842 32.194 25.9475 32.194 26.7108C31.4317 26.7108 30.6692 26.7108 29.9067 26.7108C29.9067 25.9475 29.9067 25.1842 29.9067 24.4209Z" fill="black"/>
<path opacity="0.99" fill-rule="evenodd" clip-rule="evenodd" d="M58.5759 25.5498C59.3382 25.5498 60.1009 25.5498 60.8632 25.5498C60.8632 26.3027 60.8632 27.0555 60.8632 27.8084C60.1009 27.8084 59.3382 27.8084 58.5759 27.8084C58.5759 27.0555 58.5759 26.3027 58.5759 25.5498Z" fill="black"/>
<path opacity="0.99" fill-rule="evenodd" clip-rule="evenodd" d="M63.1191 25.5498C63.8815 25.5498 64.6441 25.5498 65.4064 25.5498C65.4064 26.3027 65.4064 27.0555 65.4064 27.8084C64.6441 27.8084 63.8815 27.8084 63.1191 27.8084C63.1191 27.0555 63.1191 26.3027 63.1191 25.5498Z" fill="black"/>
<path opacity="0.973" fill-rule="evenodd" clip-rule="evenodd" d="M44.5078 26.3965C46.5234 26.3965 48.5394 26.3965 50.555 26.3965C50.555 26.8984 50.555 27.4003 50.555 27.9022C48.5394 27.9022 46.5234 27.9022 44.5078 27.9022C44.5078 27.4003 44.5078 26.8984 44.5078 26.3965Z" fill="black"/>
<path opacity="0.98" fill-rule="evenodd" clip-rule="evenodd" d="M29.9067 28.499C30.6692 28.499 31.4317 28.499 32.194 28.499C32.194 29.2623 32.194 30.0257 32.194 30.7889C31.4317 30.7889 30.6692 30.7889 29.9067 30.7889C29.9067 30.0257 29.9067 29.2623 29.9067 28.499Z" fill="black"/>
<path opacity="0.976" fill-rule="evenodd" clip-rule="evenodd" d="M34.4187 28.499C35.181 28.499 35.9437 28.499 36.706 28.499C36.706 29.2623 36.706 30.0257 36.706 30.7889C35.9437 30.7889 35.181 30.7889 34.4187 30.7889C34.4187 30.0257 34.4187 29.2623 34.4187 28.499Z" fill="black"/>
<path opacity="0.988" fill-rule="evenodd" clip-rule="evenodd" d="M44.4451 29.3457C46.4713 29.3457 48.4973 29.3457 50.5236 29.3457C50.5236 29.8372 50.5236 30.3286 50.5236 30.82C48.4973 30.82 46.4713 30.82 44.4451 30.82C44.4451 30.3286 44.4451 29.8372 44.4451 29.3457Z" fill="black"/>
<path opacity="0.976" fill-rule="evenodd" clip-rule="evenodd" d="M58.5759 29.6592C59.3382 29.6592 60.1009 29.6592 60.8632 29.6592C60.8632 30.4225 60.8632 31.1858 60.8632 31.9491C60.1009 31.9491 59.3382 31.9491 58.5759 31.9491C58.5759 31.1858 58.5759 30.4225 58.5759 29.6592Z" fill="black"/>
<path opacity="0.976" fill-rule="evenodd" clip-rule="evenodd" d="M63.1191 29.6592C63.8815 29.6592 64.6441 29.6592 65.4064 29.6592C65.4064 30.4225 65.4064 31.1858 65.4064 31.9491C64.6441 31.9491 63.8815 31.9491 63.1191 31.9491C63.1191 31.1858 63.1191 30.4225 63.1191 29.6592Z" fill="black"/>
<path opacity="0.98" fill-rule="evenodd" clip-rule="evenodd" d="M29.9067 32.6074C30.6692 32.6074 31.4317 32.6074 32.194 32.6074C32.194 33.3706 32.194 34.1341 32.194 34.8973C31.4317 34.8973 30.6692 34.8973 29.9067 34.8973C29.9067 34.1341 29.9067 33.3706 29.9067 32.6074Z" fill="black"/>
<path opacity="0.976" fill-rule="evenodd" clip-rule="evenodd" d="M34.4187 32.6074C35.181 32.6074 35.9437 32.6074 36.706 32.6074C36.706 33.3706 36.706 34.1341 36.706 34.8973C35.9437 34.8973 35.181 34.8973 34.4187 34.8973C34.4187 34.1341 34.4187 33.3706 34.4187 32.6074Z" fill="black"/>
<path opacity="0.98" fill-rule="evenodd" clip-rule="evenodd" d="M58.5759 33.7998C59.3382 33.7998 60.1009 33.7998 60.8632 33.7998C60.8632 34.563 60.8632 35.3265 60.8632 36.0897C60.1009 36.0897 59.3382 36.0897 58.5759 36.0897C58.5759 35.3265 58.5759 34.563 58.5759 33.7998Z" fill="black"/>
<path opacity="0.98" fill-rule="evenodd" clip-rule="evenodd" d="M63.1191 33.7998C63.8815 33.7998 64.6441 33.7998 65.4064 33.7998C65.4064 34.563 65.4064 35.3265 65.4064 36.0897C64.6441 36.0897 63.8815 36.0897 63.1191 36.0897C63.1191 35.3265 63.1191 34.563 63.1191 33.7998Z" fill="black"/>
<path opacity="0.98" fill-rule="evenodd" clip-rule="evenodd" d="M29.9067 36.749C30.6692 36.749 31.4317 36.749 32.194 36.749C32.194 37.5122 32.194 38.2757 32.194 39.0389C31.4317 39.0389 30.6692 39.0389 29.9067 39.0389C29.9067 38.2757 29.9067 37.5122 29.9067 36.749Z" fill="black"/>
<path opacity="0.99" fill-rule="evenodd" clip-rule="evenodd" d="M34.356 36.749C35.1079 36.749 35.8599 36.749 36.6119 36.749C36.6119 37.5122 36.6119 38.2757 36.6119 39.0389C35.8599 39.0389 35.1079 39.0389 34.356 39.0389C34.356 38.2757 34.356 37.5122 34.356 36.749Z" fill="black"/>
<path opacity="0.974" fill-rule="evenodd" clip-rule="evenodd" d="M43.0037 42.5827C43.5311 42.5463 44.0637 42.541 44.6017 42.567C45.2493 43.4453 45.8967 44.3237 46.5443 45.202C46.6273 45.2177 46.7107 45.2227 46.795 45.2177C46.795 44.329 46.795 43.44 46.795 42.5513C47.2546 42.5513 47.714 42.5513 48.1736 42.5513C48.1736 43.44 48.1736 44.329 48.1736 45.2177C48.2836 45.2337 48.3826 45.2127 48.4713 45.1549C49.1032 44.2923 49.7349 43.4297 50.3669 42.567C50.9099 42.546 51.4532 42.546 51.9962 42.567C51.2144 43.5903 50.4205 44.6044 49.6149 45.6098C50.4026 46.8219 51.1962 48.0296 51.9962 49.2329C51.4325 49.2696 50.8685 49.2746 50.3042 49.2486C49.6788 48.305 49.0575 47.3586 48.4399 46.4097C48.3547 46.3802 48.266 46.3695 48.1736 46.3783C48.1736 47.3404 48.1736 48.3022 48.1736 49.2643C47.714 49.2643 47.2546 49.2643 46.795 49.2643C46.795 48.3022 46.795 47.3404 46.795 46.3783C46.7025 46.3695 46.6139 46.3802 46.5286 46.4097C45.9152 47.3561 45.2935 48.2972 44.6644 49.2329C44.1004 49.2746 43.5364 49.2746 42.9724 49.2329C43.7704 48.0208 44.5748 46.8131 45.385 45.6098C44.5835 44.6038 43.7899 43.595 43.0037 42.5827Z" fill="black"/>
<path opacity="0.944" fill-rule="evenodd" clip-rule="evenodd" d="M77.0935 54.3467C77.2931 54.3363 77.4914 54.3467 77.6888 54.378C77.7646 54.6271 77.9213 54.6952 78.1588 54.5819C78.2293 54.5192 78.2606 54.4408 78.2528 54.3467C78.4618 54.3467 78.6705 54.3467 78.8794 54.3467C78.7901 55.0788 78.3828 55.3661 77.6575 55.2093C77.2737 55.0499 77.0857 54.7623 77.0935 54.3467Z" fill="black"/>
<path opacity="0.959" fill-rule="evenodd" clip-rule="evenodd" d="M12.5173 55.4758C13.5682 55.4106 14.268 55.8707 14.6166 56.856C14.3395 56.9319 14.0575 56.9843 13.7706 57.0129C13.6901 56.6446 13.4708 56.399 13.1126 56.2757C12.238 56.1164 11.7419 56.4771 11.6243 57.3579C11.5821 57.7422 11.6448 58.1083 11.8123 58.4558C12.1317 58.8865 12.5547 59.0384 13.0813 58.9107C13.4293 58.8081 13.659 58.5832 13.7706 58.2363C13.7915 58.2259 13.8124 58.2152 13.8333 58.2049C14.0729 58.2726 14.3132 58.3354 14.5539 58.3931C14.3386 59.0948 13.8686 59.5183 13.144 59.6635C11.6541 59.7824 10.8603 59.0923 10.7627 57.5932C10.7609 56.8861 11.022 56.3005 11.546 55.8365C11.8444 55.6377 12.1682 55.5175 12.5173 55.4758Z" fill="black"/>
<path opacity="0.963" fill-rule="evenodd" clip-rule="evenodd" d="M49.4895 55.4761C50.7604 55.43 51.4863 56.0363 51.6671 57.2955C51.7683 58.1211 51.5127 58.8062 50.8995 59.3501C50.0529 59.853 49.2279 59.8216 48.4242 59.256C48.0567 58.9125 47.8427 58.4891 47.7819 57.9856C47.655 57.1537 47.89 56.4479 48.4869 55.8682C48.793 55.6571 49.1273 55.5263 49.4895 55.4761ZM49.5209 56.2289C50.2503 56.1834 50.6839 56.5178 50.8212 57.2327C50.8885 57.6725 50.8259 58.0907 50.6332 58.4875C50.1829 59.0041 49.6556 59.0929 49.0509 58.7541C48.7673 58.4884 48.6157 58.1591 48.5966 57.766C48.569 57.4043 48.6316 57.0593 48.7845 56.7308C48.9666 56.4651 49.2119 56.2976 49.5209 56.2289Z" fill="black"/>
<path opacity="0.964" fill-rule="evenodd" clip-rule="evenodd" d="M57.0094 55.4756C58.4194 55.4703 59.1504 56.1761 59.2027 57.593C59.2074 58.2838 58.9567 58.8591 58.4507 59.3183C57.6195 59.8472 56.7942 59.8368 55.9755 59.2869C55.5988 58.9459 55.3742 58.5225 55.3018 58.0165C55.2072 57.4035 55.3115 56.8282 55.6151 56.2912C55.9614 55.8122 56.426 55.5402 57.0094 55.4756ZM57.0408 56.2285C57.7771 56.1968 58.2104 56.5418 58.3411 57.2636C58.3956 57.6661 58.3436 58.0529 58.1844 58.4243C57.9165 58.838 57.5352 59.0106 57.0408 58.9419C56.4617 58.801 56.1537 58.4296 56.1165 57.8283C56.0742 57.4437 56.1368 57.0776 56.3045 56.7304C56.4868 56.4644 56.7325 56.2972 57.0408 56.2285Z" fill="black"/>
<path opacity="0.963" fill-rule="evenodd" clip-rule="evenodd" d="M66.1899 55.476C67.4043 55.4321 68.1196 56.0074 68.3361 57.2013C68.4405 57.8813 68.2941 58.498 67.8975 59.052C67.2257 59.707 66.4474 59.8689 65.5632 59.5382C64.7931 59.126 64.4171 58.4777 64.4352 57.5934C64.4205 56.9258 64.6505 56.3612 65.1245 55.8994C65.4438 55.6623 65.7991 55.5211 66.1899 55.476ZM66.1899 56.2288C66.8942 56.1708 67.3278 56.4845 67.4901 57.1699C67.5785 57.6163 67.5265 58.0451 67.3335 58.456C67.013 58.887 66.59 59.0388 66.0645 58.9109C65.6118 58.7393 65.3558 58.4099 65.2969 57.9227C65.232 57.4939 65.2947 57.0861 65.4849 56.6994C65.6613 56.4519 65.8963 56.295 66.1899 56.2288Z" fill="black"/>
<path opacity="0.959" fill-rule="evenodd" clip-rule="evenodd" d="M70.0749 55.4757C70.5756 55.4161 71.0249 55.5366 71.4222 55.8365C71.7428 56.2126 71.8211 56.6361 71.6572 57.1069C71.5971 57.2167 71.5294 57.3215 71.4536 57.4206C71.9107 57.9366 71.9787 58.5013 71.6572 59.1145C71.3154 59.5286 70.8717 59.7272 70.3256 59.7105C69.9242 59.7121 69.5586 59.6023 69.229 59.3812C68.9695 59.1597 68.8442 58.8827 68.853 58.5499C69.1111 58.4912 69.3725 58.4492 69.6363 58.4244C69.6657 58.7102 69.8224 58.8827 70.1063 58.942C70.4052 58.9941 70.6715 58.926 70.9052 58.7381C71.1233 58.3366 71.024 58.0489 70.6076 57.8755C70.4218 57.8366 70.2338 57.8209 70.0436 57.8284C70.0436 57.5774 70.0436 57.3265 70.0436 57.0755C70.2341 57.085 70.4221 57.0693 70.6076 57.0285C70.9751 56.8259 71.0064 56.5853 70.7016 56.307C70.3983 56.1837 70.111 56.2098 69.8399 56.3854C69.7842 56.4723 69.7425 56.5664 69.7146 56.6678C69.4715 56.6157 69.2258 56.5686 68.9783 56.5266C68.9463 56.5103 68.9257 56.4842 68.9156 56.4482C68.9902 56.0231 69.2305 55.7355 69.6363 55.5855C69.7842 55.5388 69.9305 55.5021 70.0749 55.4757Z" fill="black"/>
<path opacity="0.959" fill-rule="evenodd" clip-rule="evenodd" d="M81.9499 55.4759C83.0008 55.4103 83.7008 55.8705 84.0492 56.8561C83.802 56.9216 83.5513 56.974 83.2972 57.0129C83.2678 57.0095 83.2414 56.9991 83.2189 56.9816C82.9344 56.304 82.4384 56.0794 81.7306 56.3071C81.4126 56.458 81.2089 56.7039 81.1196 57.0443C80.9799 57.5892 81.0532 58.1014 81.3389 58.5814C81.8186 59.0243 82.3356 59.0714 82.8899 58.7225C83.0534 58.5851 83.1578 58.4126 83.2032 58.2049C83.4843 58.2542 83.7556 58.3326 84.0179 58.4402C83.6535 59.3342 82.9848 59.7524 82.0126 59.695C81.0723 59.6005 80.4926 59.0933 80.2736 58.1736C80.1264 57.4916 80.2307 56.8536 80.5869 56.2601C80.9282 55.7993 81.3825 55.5377 81.9499 55.4759Z" fill="black"/>
<path opacity="0.976" fill-rule="evenodd" clip-rule="evenodd" d="M-0.015625 55.5703C1.09145 55.5703 2.19854 55.5703 3.30561 55.5703C3.30561 55.8316 3.30561 56.0932 3.30561 56.3545C2.88785 56.3545 2.47008 56.3545 2.05232 56.3545C2.05232 57.4421 2.05232 58.5293 2.05232 59.6169C1.79121 59.6169 1.53011 59.6169 1.26901 59.6169C1.26901 58.5293 1.26901 57.4421 1.26901 56.3545C0.840794 56.3545 0.412586 56.3545 -0.015625 56.3545C-0.015625 56.0932 -0.015625 55.8316 -0.015625 55.5703Z" fill="black"/>
<path opacity="0.968" fill-rule="evenodd" clip-rule="evenodd" d="M3.80688 55.5694C4.50673 55.5641 5.20647 55.5694 5.90616 55.5851C6.60838 55.7523 6.97394 56.1965 7.00279 56.9182C6.96476 57.6099 6.60964 58.0441 5.93749 58.2201C5.48853 58.2357 5.03941 58.2411 4.5902 58.2357C4.5902 58.6959 4.5902 59.1558 4.5902 59.616C4.3291 59.616 4.06798 59.616 3.80688 59.616C3.80688 58.2671 3.80688 56.9182 3.80688 55.5694ZM4.5902 56.3222C4.99764 56.3169 5.40497 56.3222 5.81216 56.3379C6.22124 56.5701 6.31 56.8888 6.07849 57.2947C6.01777 57.3765 5.93943 57.434 5.84349 57.4672C5.42803 57.5124 5.01027 57.5281 4.5902 57.5143C4.5902 57.1168 4.5902 56.7197 4.5902 56.3222Z" fill="black"/>
<path opacity="0.972" fill-rule="evenodd" clip-rule="evenodd" d="M7.56689 55.5703C8.45464 55.5703 9.34241 55.5703 10.2302 55.5703C10.2302 55.8316 10.2302 56.0932 10.2302 56.3545C9.6035 56.3545 8.97685 56.3545 8.35021 56.3545C8.35021 56.6369 8.35021 56.9192 8.35021 57.2015C8.86196 57.2015 9.37374 57.2015 9.8855 57.2015C9.8855 57.4628 9.8855 57.7244 9.8855 57.9857C9.37374 57.9857 8.86196 57.9857 8.35021 57.9857C8.35021 58.268 8.35021 58.5504 8.35021 58.8327C8.97685 58.8327 9.6035 58.8327 10.2302 58.8327C10.2302 59.094 10.2302 59.3556 10.2302 59.6169C9.34241 59.6169 8.45464 59.6169 7.56689 59.6169C7.56689 58.268 7.56689 56.9192 7.56689 55.5703Z" fill="black"/>
<path opacity="0.975" fill-rule="evenodd" clip-rule="evenodd" d="M14.8672 55.5703C15.9743 55.5703 17.0814 55.5703 18.1884 55.5703C18.1884 55.8316 18.1884 56.0932 18.1884 56.3545C17.7707 56.3545 17.3529 56.3545 16.9351 56.3545C16.9351 57.4421 16.9351 58.5293 16.9351 59.6169C16.674 59.6169 16.4129 59.6169 16.1518 59.6169C16.1518 58.5293 16.1518 57.4421 16.1518 56.3545C15.7236 56.3545 15.2954 56.3545 14.8672 56.3545C14.8672 56.0932 14.8672 55.8316 14.8672 55.5703Z" fill="black"/>
<path opacity="0.957" fill-rule="evenodd" clip-rule="evenodd" d="M19.3792 55.5694C19.6927 55.5641 20.0061 55.5694 20.3192 55.5851C20.6391 56.1158 20.9628 56.6438 21.2905 57.1692C21.4353 57.2003 21.5815 57.2109 21.7292 57.2006C21.7292 56.6569 21.7292 56.113 21.7292 55.5694C22.0007 55.5694 22.2723 55.5694 22.5438 55.5694C22.5438 56.113 22.5438 56.6569 22.5438 57.2006C22.6879 57.21 22.8289 57.1996 22.9668 57.1692C23.2791 56.6422 23.5977 56.1193 23.9224 55.6008C24.2462 55.559 24.57 55.559 24.8937 55.6008C24.4798 56.2294 24.0725 56.8621 23.6718 57.4986C24.105 58.2094 24.5542 58.9099 25.0191 59.6003C24.6953 59.6213 24.3715 59.6213 24.0478 59.6003C23.6914 59.0174 23.331 58.4371 22.9668 57.8593C22.8289 57.8289 22.6879 57.8185 22.5438 57.8279C22.5438 58.4239 22.5438 59.02 22.5438 59.616C22.2723 59.616 22.0007 59.616 21.7292 59.616C21.7292 59.02 21.7292 58.4239 21.7292 57.8279C21.5815 57.8176 21.4353 57.8283 21.2905 57.8593C20.9354 58.4343 20.5803 59.0096 20.2252 59.5846C19.9015 59.6263 19.5777 59.6263 19.2539 59.5846C19.703 58.8945 20.1521 58.2044 20.6012 57.5143C20.1775 56.8746 19.7702 56.2266 19.3792 55.5694Z" fill="black"/>
<path opacity="0.982" fill-rule="evenodd" clip-rule="evenodd" d="M25.489 55.5694C25.7501 55.5694 26.0112 55.5694 26.2723 55.5694C26.2671 56.4163 26.2723 57.2633 26.288 58.1103C26.8847 57.2658 27.4852 56.4242 28.0896 55.5851C28.3191 55.5694 28.5489 55.5641 28.7789 55.5694C28.7789 56.9182 28.7789 58.2671 28.7789 59.616C28.5178 59.616 28.2567 59.616 27.9956 59.616C28.0008 58.7583 27.9956 57.901 27.9799 57.0437C27.3794 57.896 26.7789 58.748 26.1783 59.6003C25.9488 59.616 25.719 59.6213 25.489 59.616C25.489 58.2671 25.489 56.9182 25.489 55.5694Z" fill="black"/>
<path opacity="0.953" fill-rule="evenodd" clip-rule="evenodd" d="M30.2514 55.5703C31.1705 55.5703 32.0897 55.5703 33.0086 55.5703C33.0086 56.9192 33.0086 58.268 33.0086 59.6169C32.737 59.6169 32.4656 59.6169 32.194 59.6169C32.194 58.519 32.194 57.4211 32.194 56.3232C31.7553 56.3232 31.3167 56.3232 30.878 56.3232C30.7944 57.0763 30.7057 57.8292 30.6117 58.5817C30.5374 59.3625 30.1144 59.7075 29.3427 59.6169C29.3324 59.386 29.3428 59.1558 29.3741 58.9268C29.6743 58.8929 29.8467 58.7254 29.8911 58.4249C30.0036 57.4709 30.1238 56.5192 30.2514 55.5703Z" fill="black"/>
<path opacity="0.962" fill-rule="evenodd" clip-rule="evenodd" d="M33.886 55.5701C34.1576 55.5701 34.429 55.5701 34.7006 55.5701C34.6953 56.417 34.7006 57.264 34.7163 58.1109C35.3013 57.2743 35.8859 56.438 36.4709 55.6014C36.7137 55.5707 36.9591 55.56 37.2072 55.5701C37.2072 56.9189 37.2072 58.2678 37.2072 59.6166C36.9356 59.6166 36.6642 59.6166 36.3926 59.6166C36.3979 58.7697 36.3926 57.9227 36.3769 57.0758C35.7791 57.9067 35.1891 58.7433 34.6066 59.5853C34.3673 59.6166 34.1272 59.627 33.886 59.6166C33.886 58.2678 33.886 56.9189 33.886 55.5701Z" fill="black"/>
<path opacity="0.971" fill-rule="evenodd" clip-rule="evenodd" d="M38.0845 55.5703C38.3455 55.5703 38.6068 55.5703 38.8678 55.5703C38.8678 56.6579 38.8678 57.7451 38.8678 58.8327C39.2228 58.8327 39.5781 58.8327 39.9331 58.8327C39.9331 57.7451 39.9331 56.6579 39.9331 55.5703C40.1941 55.5703 40.4554 55.5703 40.7164 55.5703C40.7164 56.6579 40.7164 57.7451 40.7164 58.8327C41.0714 58.8327 41.4267 58.8327 41.7817 58.8327C41.7817 57.7451 41.7817 56.6579 41.7817 55.5703C42.0427 55.5703 42.304 55.5703 42.565 55.5703C42.565 56.6579 42.565 57.7451 42.565 58.8327C42.7427 58.8327 42.92 58.8327 43.0977 58.8327C43.0977 59.2615 43.0977 59.69 43.0977 60.1188C42.826 60.1188 42.5547 60.1188 42.283 60.1188C42.283 59.9516 42.283 59.7841 42.283 59.6169C40.8834 59.6169 39.4841 59.6169 38.0845 59.6169C38.0845 58.268 38.0845 56.9192 38.0845 55.5703Z" fill="black"/>
<path opacity="0.963" fill-rule="evenodd" clip-rule="evenodd" d="M43.7559 55.5703C44.0169 55.5703 44.2782 55.5703 44.5392 55.5703C44.5392 56.208 44.5392 56.8461 44.5392 57.4838C45.1241 57.4838 45.7088 57.4838 46.2938 57.4838C46.2938 56.8461 46.2938 56.208 46.2938 55.5703C46.5654 55.5703 46.8368 55.5703 47.1084 55.5703C47.1084 56.9192 47.1084 58.268 47.1084 59.6169C46.8368 59.6169 46.5654 59.6169 46.2938 59.6169C46.2938 59.1674 46.2938 58.7175 46.2938 58.268C45.7088 58.268 45.1241 58.268 44.5392 58.268C44.5392 58.7175 44.5392 59.1674 44.5392 59.6169C44.2782 59.6169 44.0169 59.6169 43.7559 59.6169C43.7559 58.268 43.7559 56.9192 43.7559 55.5703Z" fill="black"/>
<path opacity="0.974" fill-rule="evenodd" clip-rule="evenodd" d="M52.3408 55.5703C53.2285 55.5703 54.1164 55.5703 55.0041 55.5703C55.0041 55.8316 55.0041 56.0932 55.0041 56.3545C54.3774 56.3545 53.7508 56.3545 53.1241 56.3545C53.1241 57.4421 53.1241 58.5293 53.1241 59.6169C52.8631 59.6169 52.6018 59.6169 52.3408 59.6169C52.3408 58.268 52.3408 56.9192 52.3408 55.5703Z" fill="black"/>
<path opacity="0.957" fill-rule="evenodd" clip-rule="evenodd" d="M60.6126 55.6013C60.931 55.5649 61.2546 55.5595 61.5839 55.5856C61.8778 56.0222 62.1755 56.4561 62.4769 56.8874C62.7642 56.4586 63.0512 56.0301 63.3386 55.6013C63.6622 55.5595 63.9862 55.5595 64.3099 55.6013C63.8565 56.2591 63.3968 56.9128 62.9312 57.5618C63.4116 58.2416 63.8922 58.921 64.3725 59.6008C64.0379 59.6268 63.7036 59.6218 63.3699 59.5851C63.0722 59.1356 62.7746 58.6857 62.4769 58.2362C62.1689 58.6911 61.8606 59.1459 61.5526 59.6008C61.2283 59.6268 60.9046 59.6218 60.5813 59.5851C61.0557 58.9063 61.536 58.2318 62.0226 57.5618C61.5557 56.9034 61.0858 56.25 60.6126 55.6013Z" fill="black"/>
<path opacity="0.971" fill-rule="evenodd" clip-rule="evenodd" d="M73.2397 55.5703C73.9394 55.5703 74.6393 55.5703 75.339 55.5703C75.339 56.9192 75.339 58.268 75.339 59.6169C75.078 59.6169 74.8167 59.6169 74.5557 59.6169C74.5557 59.1567 74.5557 58.6968 74.5557 58.2367C74.2624 58.2263 73.9701 58.2367 73.6784 58.268C73.4694 58.7072 73.2607 59.1464 73.0517 59.5855C72.7487 59.6272 72.4461 59.6272 72.1431 59.5855C72.3746 59.0902 72.6149 58.5987 72.8637 58.1112C72.107 57.6014 71.9454 56.9427 72.3781 56.135C72.6027 55.8476 72.8897 55.6594 73.2397 55.5703ZM73.365 56.3232C73.762 56.3232 74.1587 56.3232 74.5557 56.3232C74.5557 56.7206 74.5557 57.1177 74.5557 57.5152C74.1797 57.5205 73.8037 57.5152 73.4277 57.4995C72.9499 57.3119 72.8299 56.9932 73.0674 56.5427C73.1557 56.4493 73.2551 56.3762 73.365 56.3232Z" fill="black"/>
<path opacity="0.982" fill-rule="evenodd" clip-rule="evenodd" d="M76.2476 55.5694C76.5086 55.5694 76.7699 55.5694 77.0309 55.5694C77.0255 56.427 77.0309 57.2843 77.0465 58.1416C77.6356 57.2812 78.2359 56.4289 78.8482 55.5851C79.0778 55.5694 79.3075 55.5641 79.5375 55.5694C79.5375 56.9182 79.5375 58.2671 79.5375 59.616C79.2765 59.616 79.0152 59.616 78.7542 59.616C78.7595 58.7583 78.7542 57.901 78.7385 57.0437C78.1378 57.896 77.5375 58.748 76.9369 59.6003C76.7072 59.616 76.4775 59.6213 76.2476 59.616C76.2476 58.2671 76.2476 56.9182 76.2476 55.5694Z" fill="black"/>
<path opacity="0.976" fill-rule="evenodd" clip-rule="evenodd" d="M84.3313 55.5703C85.4383 55.5703 86.5456 55.5703 87.6525 55.5703C87.6525 55.8316 87.6525 56.0932 87.6525 56.3545C87.2242 56.3545 86.7962 56.3545 86.3679 56.3545C86.3679 57.4421 86.3679 58.5293 86.3679 59.6169C86.1069 59.6169 85.8456 59.6169 85.5846 59.6169C85.5846 58.5293 85.5846 57.4421 85.5846 56.3545C85.1669 56.3545 84.749 56.3545 84.3313 56.3545C84.3313 56.0932 84.3313 55.8316 84.3313 55.5703Z" fill="black"/>
<path opacity="0.967" fill-rule="evenodd" clip-rule="evenodd" d="M88.1226 55.5694C88.7389 55.5641 89.3552 55.5694 89.9712 55.5851C90.4744 55.6811 90.7824 55.9791 90.8955 56.4791C90.9666 56.8248 90.8989 57.1385 90.6918 57.4201C91.1295 57.8803 91.2182 58.4029 90.9581 58.9886C90.751 59.3415 90.443 59.5454 90.0338 59.6003C89.3968 59.616 88.7599 59.6213 88.1226 59.616C88.1226 58.2671 88.1226 56.9182 88.1226 55.5694ZM88.9372 56.2909C89.2427 56.2777 89.5454 56.2934 89.8458 56.3379C90.1018 56.4794 90.1698 56.6833 90.0495 56.9496C89.9887 57.0315 89.9104 57.0889 89.8145 57.1221C89.5222 57.1378 89.2298 57.1432 88.9372 57.1378C88.9372 56.8555 88.9372 56.5732 88.9372 56.2909ZM88.9372 57.8593C89.2941 57.8474 89.6491 57.8631 90.0025 57.9064C90.3193 58.0943 90.387 58.3505 90.2062 58.6749C90.1454 58.7568 90.0671 58.8142 89.9712 58.8474C89.6268 58.8631 89.2822 58.8684 88.9372 58.8631C88.9372 58.5284 88.9372 58.194 88.9372 57.8593Z" fill="black"/>
<path opacity="0.963" fill-rule="evenodd" clip-rule="evenodd" d="M94.9844 59.5855C94.9844 59.5958 94.9844 59.6065 94.9844 59.6169C94.7024 59.6169 94.4204 59.6169 94.1384 59.6169C94.0861 59.4076 94.0341 59.1987 93.9818 58.9895C93.4382 58.9791 92.8952 58.9895 92.3525 59.0209C92.2898 59.2091 92.2272 59.3973 92.1645 59.5855C91.8928 59.6272 91.6215 59.6272 91.3499 59.5855C91.7522 58.2561 92.1595 56.9282 92.5718 55.6017C92.9682 55.5703 93.3652 55.5599 93.7625 55.5703C94.151 56.9173 94.5583 58.2558 94.9844 59.5855ZM93.1358 56.3545C93.3395 56.9662 93.5378 57.5829 93.7311 58.2053C93.3558 58.2366 92.9798 58.247 92.6032 58.2366C92.7808 57.6093 92.9581 56.9819 93.1358 56.3545Z" fill="black"/>
<path opacity="0.935" fill-rule="evenodd" clip-rule="evenodd" d="M39.3693 62.8478C40.2569 62.8399 40.6956 63.2844 40.6852 64.1809C40.7053 64.633 40.5486 65.0094 40.2152 65.3102C39.6033 65.643 39.0863 65.5332 38.6643 64.9808C38.559 64.7845 38.5014 64.5756 38.492 64.3535C38.4503 64.3535 38.4083 64.3535 38.3666 64.3535C38.3666 64.7195 38.3666 65.0853 38.3666 65.4514C38.2516 65.4514 38.137 65.4514 38.022 65.4514C38.022 64.5941 38.022 63.7364 38.022 62.8791C38.137 62.8791 38.2516 62.8791 38.3666 62.8791C38.3666 63.2556 38.3666 63.632 38.3666 64.0084C38.4083 64.0084 38.4503 64.0084 38.492 64.0084C38.5214 63.414 38.8137 63.0272 39.3693 62.8478ZM39.5259 63.1928C39.8966 63.1978 40.1419 63.3757 40.2622 63.7261C40.3788 64.121 40.3371 64.4974 40.1369 64.8554C39.8007 65.207 39.4457 65.2277 39.0716 64.9181C38.7846 64.4614 38.7639 63.9908 39.0089 63.5065C39.1487 63.339 39.321 63.2345 39.5259 63.1928Z" fill="black"/>
<path opacity="0.92" fill-rule="evenodd" clip-rule="evenodd" d="M56.5707 62.8477C57.573 62.8107 58.0794 63.2919 58.0903 64.2907C57.9885 65.0407 57.5605 65.4485 56.8057 65.514C55.862 65.3826 55.444 64.8387 55.5524 63.8829C55.689 63.3333 56.0283 62.9882 56.5707 62.8477ZM56.7587 63.1927C57.4715 63.2702 57.7898 63.6677 57.7143 64.3848C57.5624 64.9541 57.1917 65.2 56.602 65.1219C56.0124 64.8983 55.7877 64.4748 55.9284 63.8515C56.0803 63.47 56.357 63.2505 56.7587 63.1927Z" fill="black"/>
<path opacity="0.907" fill-rule="evenodd" clip-rule="evenodd" d="M17.7812 62.9102C17.9123 62.8691 18.0481 62.8691 18.1886 62.9102C18.4236 63.4018 18.6586 63.893 18.8936 64.3845C19.1336 63.8936 19.3477 63.3917 19.5359 62.8788C19.6732 62.8685 19.809 62.8791 19.9432 62.9102C19.6129 63.6775 19.2735 64.4407 18.9249 65.2001C18.781 65.4031 18.5825 65.5075 18.3296 65.5138C18.2199 65.4909 18.1102 65.4699 18.0006 65.4511C17.9904 65.324 18.0009 65.1986 18.0319 65.0747C18.1738 65.1305 18.32 65.1462 18.4706 65.1217C18.593 65.0599 18.6661 64.9605 18.6899 64.8237C18.3941 64.1794 18.0913 63.5417 17.7812 62.9102Z" fill="black"/>
<path opacity="0.897" fill-rule="evenodd" clip-rule="evenodd" d="M20.5383 62.8789C21.2276 62.8789 21.917 62.8789 22.6063 62.8789C22.6063 63.7362 22.6063 64.5938 22.6063 65.4511C22.4809 65.4511 22.3556 65.4511 22.2303 65.4511C22.2303 64.7193 22.2303 63.9872 22.2303 63.2553C21.7916 63.2553 21.353 63.2553 20.9143 63.2553C20.9143 63.9872 20.9143 64.7193 20.9143 65.4511C20.789 65.4511 20.6637 65.4511 20.5383 65.4511C20.5383 64.5938 20.5383 63.7362 20.5383 62.8789Z" fill="black"/>
<path opacity="0.918" fill-rule="evenodd" clip-rule="evenodd" d="M23.4836 62.8789C23.9867 62.8651 24.4881 62.8808 24.9876 62.9259C25.4843 63.1411 25.6567 63.5122 25.5046 64.0395C25.3833 64.3284 25.1692 64.501 24.8623 64.5571C24.5282 64.5728 24.194 64.5781 23.8596 64.5728C23.8596 64.8655 23.8596 65.1584 23.8596 65.4511C23.7343 65.4511 23.609 65.4511 23.4836 65.4511C23.4836 64.5938 23.4836 63.7362 23.4836 62.8789ZM23.8596 63.2553C24.2171 63.2418 24.5723 63.2575 24.9249 63.3023C25.1954 63.4664 25.2633 63.6913 25.1286 63.9768C25.0577 64.0687 24.9689 64.1368 24.8623 64.1807C24.5301 64.2246 24.1959 64.2403 23.8596 64.2277C23.8596 63.9037 23.8596 63.5793 23.8596 63.2553Z" fill="black"/>
<path opacity="0.928" fill-rule="evenodd" clip-rule="evenodd" d="M27.1808 62.879C27.2835 62.8702 27.3827 62.8806 27.4784 62.9104C27.8511 63.7507 28.2323 64.587 28.6221 65.4199C28.4863 65.4616 28.3505 65.4616 28.2148 65.4199C28.1352 65.2345 28.0517 65.0516 27.9641 64.8709C27.5359 64.8499 27.1077 64.8499 26.6795 64.8709C26.5919 65.0516 26.5083 65.2345 26.4288 65.4199C26.293 65.4616 26.1572 65.4616 26.0215 65.4199C26.4169 64.576 26.8033 63.7291 27.1808 62.879ZM27.3061 63.475C27.4763 63.8107 27.6434 64.1504 27.8074 64.4945C27.4837 64.5155 27.1599 64.5155 26.8361 64.4945C27.0058 64.1601 27.1624 63.8204 27.3061 63.475Z" fill="black"/>
<path opacity="0.938" fill-rule="evenodd" clip-rule="evenodd" d="M29.2488 62.879C29.698 62.8736 30.1471 62.879 30.5961 62.8946C31.1014 63.0242 31.2946 63.3429 31.1757 63.8514C31.135 63.9389 31.088 64.0227 31.0347 64.1023C31.3609 64.384 31.4289 64.7187 31.2384 65.1061C31.1091 65.2834 30.9368 65.3932 30.7214 65.4355C30.2306 65.4512 29.7398 65.4565 29.2488 65.4512C29.2488 64.5939 29.2488 63.7363 29.2488 62.879ZM29.5934 63.2554C29.9278 63.2501 30.262 63.2554 30.5961 63.2711C30.8419 63.3721 30.9098 63.5446 30.7997 63.7887C30.7455 63.8552 30.6776 63.9022 30.5961 63.9298C30.262 63.9455 29.9278 63.9508 29.5934 63.9455C29.5934 63.7156 29.5934 63.4853 29.5934 63.2554ZM29.5934 64.3219C29.9714 64.3091 30.3474 64.3247 30.7214 64.369C30.9752 64.486 31.0379 64.6689 30.9094 64.9179C30.8269 65.0136 30.7225 65.071 30.5961 65.0905C30.262 65.1061 29.9278 65.1115 29.5934 65.1061C29.5934 64.8448 29.5934 64.5832 29.5934 64.3219Z" fill="black"/>
<path opacity="0.941" fill-rule="evenodd" clip-rule="evenodd" d="M32.5387 62.8789C33.0923 62.8789 33.6457 62.8789 34.1993 62.8789C34.1993 63.7362 34.1993 64.5938 34.1993 65.4511C34.0843 65.4511 33.9696 65.4511 33.8546 65.4511C33.8546 64.7086 33.8546 63.9665 33.8546 63.224C33.531 63.224 33.207 63.224 32.8833 63.224C32.8887 63.6214 32.8833 64.0188 32.8677 64.416C32.847 64.8078 32.6953 65.1371 32.4133 65.4041C32.3247 65.4599 32.2307 65.507 32.1314 65.5453C32.0646 65.438 32.002 65.3282 31.9434 65.2159C32.2257 65.1215 32.398 64.9282 32.4603 64.6356C32.4898 64.5223 32.5108 64.4072 32.523 64.2905C32.5387 63.82 32.544 63.3494 32.5387 62.8789Z" fill="black"/>
<path opacity="0.942" fill-rule="evenodd" clip-rule="evenodd" d="M35.8287 62.8789C36.257 62.8789 36.685 62.8789 37.1134 62.8789C37.1134 63.7362 37.1134 64.5938 37.1134 65.4511C36.9984 65.4511 36.8837 65.4511 36.7687 65.4511C36.7687 65.1164 36.7687 64.7821 36.7687 64.4473C36.4761 64.442 36.1837 64.4473 35.8914 64.463C35.8366 64.4778 35.7845 64.4988 35.7347 64.5258C35.6138 64.8159 35.5094 65.1139 35.4214 65.4198C35.2976 65.4508 35.1723 65.4612 35.0454 65.4511C35.1306 65.1371 35.2196 64.8235 35.3117 64.5101C35.3468 64.4238 35.3938 64.3454 35.4527 64.2748C35.1632 64.0411 35.0742 63.7431 35.1864 63.3808C35.3224 63.1117 35.5367 62.9445 35.8287 62.8789ZM35.8287 63.2553C36.142 63.2553 36.4554 63.2553 36.7687 63.2553C36.7687 63.5377 36.7687 63.82 36.7687 64.1023C36.4864 64.1076 36.2044 64.1023 35.9227 64.0866C35.495 63.9727 35.401 63.7321 35.6407 63.3651C35.7012 63.3193 35.7639 63.2826 35.8287 63.2553Z" fill="black"/>
<path opacity="0.933" fill-rule="evenodd" clip-rule="evenodd" d="M44.6018 65.9844C44.4975 65.9844 44.3928 65.9844 44.2885 65.9844C44.2876 65.8059 44.2769 65.6281 44.2572 65.4511C43.3485 65.4511 42.4399 65.4511 41.5312 65.4511C41.5312 64.5938 41.5312 63.7362 41.5312 62.8789C41.6566 62.8789 41.7819 62.8789 41.9072 62.8789C41.9072 63.6214 41.9072 64.3636 41.9072 65.1061C42.2206 65.1061 42.5339 65.1061 42.8472 65.1061C42.8472 64.3636 42.8472 63.6214 42.8472 62.8789C42.9622 62.8789 43.0769 62.8789 43.1919 62.8789C43.1919 63.6214 43.1919 64.3636 43.1919 65.1061C43.5052 65.1061 43.8185 65.1061 44.1318 65.1061C44.1318 64.3636 44.1318 63.6214 44.1318 62.8789C44.2572 62.8789 44.3825 62.8789 44.5078 62.8789C44.5078 63.6214 44.5078 64.3636 44.5078 65.1061C44.5495 65.1061 44.5915 65.1061 44.6332 65.1061C44.6401 65.4 44.6297 65.6927 44.6018 65.9844Z" fill="black"/>
<path opacity="0.927" fill-rule="evenodd" clip-rule="evenodd" d="M46.2624 62.8787C46.3586 62.8686 46.4526 62.8793 46.5444 62.91C46.9307 63.7466 47.3174 64.5829 47.7037 65.4195C47.568 65.4613 47.4321 65.4613 47.2964 65.4195C47.2127 65.2417 47.1294 65.0641 47.0457 64.8863C46.618 64.8496 46.1897 64.8445 45.7611 64.8706C45.6611 65.056 45.5671 65.2442 45.4791 65.4352C45.3434 65.4562 45.2074 65.4562 45.0718 65.4352C45.4731 64.5845 45.8701 63.7325 46.2624 62.8787ZM46.3877 63.4747C46.5438 63.8059 46.7004 64.1406 46.8577 64.4785C46.545 64.5152 46.2317 64.5202 45.9178 64.4942C46.0835 64.1579 46.2402 63.8182 46.3877 63.4747Z" fill="black"/>
<path opacity="0.92" fill-rule="evenodd" clip-rule="evenodd" d="M48.9569 62.8789C49.3852 62.8789 49.8132 62.8789 50.2415 62.8789C50.2415 63.7362 50.2415 64.5938 50.2415 65.4511C50.1162 65.4511 49.9909 65.4511 49.8655 65.4511C49.8655 65.1164 49.8655 64.7821 49.8655 64.4473C49.5832 64.442 49.3012 64.4473 49.0196 64.463C48.9093 64.4787 48.8309 64.5364 48.7846 64.6356C48.6965 64.9053 48.6182 65.177 48.5496 65.4511C48.4242 65.4511 48.2989 65.4511 48.1736 65.4511C48.2616 65.0512 48.387 64.6641 48.5496 64.2905C48.2591 64.0038 48.1911 63.6691 48.3459 63.2867C48.4963 63.0677 48.7 62.9319 48.9569 62.8789ZM48.9569 63.2553C49.2599 63.2553 49.5626 63.2553 49.8655 63.2553C49.8655 63.5377 49.8655 63.82 49.8655 64.1023C49.5939 64.1076 49.3222 64.1023 49.0509 64.0866C48.6796 64.0066 48.5593 63.7921 48.6906 63.4435C48.7633 63.3526 48.8522 63.2898 48.9569 63.2553Z" fill="black"/>
<path opacity="0.905" fill-rule="evenodd" clip-rule="evenodd" d="M52.6228 62.8785C52.7481 62.8785 52.8735 62.8785 52.9988 62.8785C52.9935 63.3283 52.9988 63.7778 53.0145 64.2273C53.4804 63.7715 53.9554 63.327 54.4401 62.8942C54.608 62.8681 54.7753 62.8735 54.9414 62.9098C54.5698 63.2869 54.1835 63.6476 53.7821 63.9921C54.222 64.4639 54.65 64.9447 55.0667 65.435C54.8997 65.4561 54.7324 65.4561 54.5654 65.435C54.2314 65.0329 53.8868 64.6408 53.5314 64.2587C53.345 64.3983 53.1727 64.5551 53.0145 64.7292C52.9988 64.9695 52.9935 65.2101 52.9988 65.4507C52.8735 65.4507 52.7481 65.4507 52.6228 65.4507C52.6228 64.5934 52.6228 63.7358 52.6228 62.8785Z" fill="black"/>
<path opacity="0.925" fill-rule="evenodd" clip-rule="evenodd" d="M58.9207 62.8787C59.0338 62.8696 59.1434 62.88 59.2496 62.9101C59.5526 63.5585 59.8553 64.2065 60.1583 64.8549C60.4744 64.2116 60.7824 63.5632 61.0826 62.9101C61.1957 62.879 61.3104 62.8687 61.4273 62.8787C61.4273 63.736 61.4273 64.5936 61.4273 65.4509C61.3019 65.4509 61.1766 65.4509 61.0513 65.4509C61.0566 64.928 61.0513 64.4051 61.0356 63.8825C60.804 64.3985 60.5637 64.9111 60.3149 65.4196C60.2172 65.46 60.1179 65.46 60.0173 65.4196C59.7632 64.9004 59.5179 64.3778 59.281 63.8511C59.2653 64.3844 59.26 64.9177 59.2653 65.4509C59.1503 65.4509 59.0356 65.4509 58.9207 65.4509C58.9207 64.5936 58.9207 63.736 58.9207 62.8787Z" fill="black"/>
<path opacity="0.897" fill-rule="evenodd" clip-rule="evenodd" d="M62.3047 62.8789C62.994 62.8789 63.6833 62.8789 64.3726 62.8789C64.3726 63.7362 64.3726 64.5938 64.3726 65.4511C64.2473 65.4511 64.122 65.4511 63.9966 65.4511C63.9966 64.7193 63.9966 63.9872 63.9966 63.2553C63.558 63.2553 63.1193 63.2553 62.6807 63.2553C62.6807 63.9872 62.6807 64.7193 62.6807 65.4511C62.5553 65.4511 62.43 65.4511 62.3047 65.4511C62.3047 64.5938 62.3047 63.7362 62.3047 62.8789Z" fill="black"/>
<path opacity="0.927" fill-rule="evenodd" clip-rule="evenodd" d="M66.0646 62.879C66.1673 62.8702 66.2664 62.8806 66.3622 62.9104C66.7611 63.751 67.1424 64.598 67.5059 65.4512C67.3802 65.4566 67.2549 65.4512 67.1299 65.4356C67.0274 65.2511 66.9334 65.0629 66.8479 64.8709C66.4193 64.8449 65.9909 64.8499 65.5633 64.8866C65.4711 65.0607 65.3875 65.2382 65.3126 65.4199C65.1769 65.4616 65.0409 65.4616 64.9053 65.4199C65.3007 64.576 65.687 63.7291 66.0646 62.879ZM66.1899 63.475C66.36 63.8107 66.527 64.1504 66.6912 64.4945C66.3773 64.5205 66.0639 64.5155 65.7512 64.4788C65.9038 64.146 66.0498 63.8116 66.1899 63.475Z" fill="black"/>
<path opacity="0.961" fill-rule="evenodd" clip-rule="evenodd" d="M68.1323 62.8789C68.2473 62.8789 68.362 62.8789 68.477 62.8789C68.477 63.2553 68.477 63.6318 68.477 64.0082C68.968 64.0082 69.4586 64.0082 69.9496 64.0082C69.9496 63.6318 69.9496 63.2553 69.9496 62.8789C70.0646 62.8789 70.1793 62.8789 70.2943 62.8789C70.2943 63.7362 70.2943 64.5938 70.2943 65.4511C70.1793 65.4511 70.0646 65.4511 69.9496 65.4511C69.9496 65.0851 69.9496 64.7193 69.9496 64.3532C69.4586 64.3532 68.968 64.3532 68.477 64.3532C68.477 64.7193 68.477 65.0851 68.477 65.4511C68.362 65.4511 68.2473 65.4511 68.1323 65.4511C68.1323 64.5938 68.1323 63.7362 68.1323 62.8789Z" fill="black"/>
<path opacity="0.914" fill-rule="evenodd" clip-rule="evenodd" d="M71.2031 62.8787C71.3181 62.8787 71.4328 62.8787 71.5478 62.8787C71.5425 63.5167 71.5478 64.1545 71.5634 64.7922C72.0654 64.1692 72.5617 63.5418 73.0517 62.9101C73.1648 62.879 73.2795 62.8687 73.3964 62.8787C73.3964 63.736 73.3964 64.5936 73.3964 65.4509C73.2711 65.4509 73.1457 65.4509 73.0204 65.4509C73.0257 64.8236 73.0204 64.1962 73.0047 63.5688C72.5169 64.1802 72.0363 64.7969 71.5634 65.4196C71.4466 65.4497 71.3266 65.46 71.2031 65.4509C71.2031 64.5936 71.2031 63.736 71.2031 62.8787Z" fill="black"/>
<path opacity="0.934" fill-rule="evenodd" clip-rule="evenodd" d="M74.9315 62.8789C75.3598 62.8789 75.7878 62.8789 76.2161 62.8789C76.2161 63.7362 76.2161 64.5938 76.2161 65.4511C76.1011 65.4511 75.9865 65.4511 75.8715 65.4511C75.8715 65.1164 75.8715 64.7821 75.8715 64.4473C75.5788 64.442 75.2865 64.4473 74.9942 64.463C74.8839 64.4787 74.8055 64.5364 74.7592 64.6356C74.6855 64.8984 74.6072 65.16 74.5242 65.4198C74.4004 65.4508 74.2751 65.4612 74.1482 65.4511C74.2359 65.0518 74.3613 64.665 74.5242 64.2905C74.2068 63.9605 74.1598 63.5944 74.3832 63.1926C74.5383 63.0342 74.721 62.9297 74.9315 62.8789ZM74.9315 63.2553C75.2448 63.2553 75.5582 63.2553 75.8715 63.2553C75.8715 63.5377 75.8715 63.82 75.8715 64.1023C75.5892 64.1076 75.3072 64.1023 75.0255 64.0866C74.6539 64.006 74.5339 63.7917 74.6652 63.4435C74.7488 63.3683 74.8375 63.3055 74.9315 63.2553Z" fill="black"/>
</g>
<defs>
<clipPath id="clip0_6306_1373">
<rect width="95" height="66" fill="white"/>
</clipPath>
</defs>
</svg>
