<svg viewBox="0 0 32 32" fill="none" xmlns="http://www.w3.org/2000/svg">
<path d="M16.9529 15.4335V15.4601L16.9757 15.4737L21.4906 18.1825C21.4906 18.1825 21.4907 18.1825 21.4907 18.1825C21.7074 18.3127 21.8636 18.5236 21.9248 18.769C21.986 19.0143 21.9473 19.2739 21.8171 19.4907C21.6869 19.7074 21.4759 19.8636 21.2306 19.9248C20.9853 19.986 20.7257 19.9473 20.5089 19.8171L20.5089 19.8171L15.5089 16.8171C15.3679 16.7324 15.2512 16.6126 15.1702 16.4693C15.0891 16.3261 15.0466 16.1644 15.0466 15.9998V9.9998C15.0466 9.74701 15.1471 9.50458 15.3258 9.32584C15.5046 9.14709 15.747 9.04667 15.9998 9.04667C16.2526 9.04667 16.495 9.14709 16.6737 9.32584C16.8525 9.50458 16.9529 9.74701 16.9529 9.9998V15.4335ZM26.9643 10.2804L27.0466 10.3759V10.2498V7.9998C27.0466 7.74701 27.1471 7.50458 27.3258 7.32584C27.5046 7.14709 27.747 7.04667 27.9998 7.04667C28.2526 7.04667 28.495 7.14709 28.6737 7.32584C28.8525 7.50458 28.9529 7.74701 28.9529 7.9998V12.9998C28.9529 13.2526 28.8525 13.495 28.6737 13.6738C28.495 13.8525 28.2526 13.9529 27.9998 13.9529H22.9998C22.747 13.9529 22.5046 13.8525 22.3258 13.6738C22.1471 13.495 22.0466 13.2526 22.0466 12.9998C22.0466 12.747 22.1471 12.5046 22.3258 12.3258C22.5046 12.1471 22.747 12.0467 22.9998 12.0467H25.8748H25.9764L25.9104 11.9694C25.0112 10.9163 24.1191 9.92287 23.1006 8.89185L23.1004 8.89163C21.7035 7.49675 19.9266 6.54432 17.9916 6.15326C16.0567 5.7622 14.0493 5.94984 12.2204 6.69276C10.3914 7.43568 8.82185 8.70095 7.70767 10.3306C6.59349 11.9602 5.98408 13.8819 5.95554 15.8558C5.92701 17.8297 6.48061 19.7682 7.54722 21.4294C8.61383 23.0905 10.1462 24.4006 11.9529 25.1961C13.7596 25.9916 15.7607 26.2372 17.7061 25.9022C19.6516 25.5672 21.4553 24.6666 22.8919 23.3127L22.892 23.3126C22.983 23.2266 23.0902 23.1593 23.2072 23.1146C23.3243 23.07 23.449 23.0488 23.5742 23.0523C23.6995 23.0559 23.8228 23.0841 23.9371 23.1353C24.0515 23.1865 24.1546 23.2597 24.2407 23.3507C24.3268 23.4418 24.394 23.5489 24.4387 23.666C24.4834 23.7831 24.5045 23.9078 24.501 24.033C24.4974 24.1582 24.4693 24.2816 24.4181 24.3959C24.3669 24.5103 24.2936 24.6134 24.2026 24.6995C22.4939 26.3119 20.3479 27.385 18.0328 27.7847C15.7176 28.1844 13.3361 27.8931 11.1856 26.947C9.03512 26.0009 7.21113 24.4421 5.94154 22.4653C4.67194 20.4885 4.01304 18.1814 4.04716 15.8323C4.08128 13.4831 4.80691 11.1962 6.13338 9.25707C7.45985 7.31798 9.32834 5.81279 11.5054 4.92957C13.6824 4.04635 16.0715 3.82426 18.374 4.29106C20.6765 4.75785 22.7904 5.89282 24.4516 7.55415C25.3619 8.47576 26.1712 9.36117 26.9643 10.2804Z" fill="currentColor" stroke="currentColor" stroke-width="0.09375"/>
</svg>
