<svg  viewBox="0 0 31 32" fill="none" xmlns="http://www.w3.org/2000/svg">
<path d="M9.93997 4.012C8.01552 1.92078 5.83992 2.50968 4.99268 3.06554V1.08245C4.99268 0.181061 5.7794 -0.0142396 6.17277 0.000783542H28.2767C29.5476 0.000783542 29.6837 1.02235 29.593 1.53314V16.0455H27.2328L27.8228 14.8737L27.2328 13.6117H21.0146V16.0455H12.5725V14.8737C15.1868 14.0444 15.9614 13.2962 16.022 13.0258L19.3807 8.42874C19.9616 7.05864 19.1386 5.87482 18.6545 5.45417C17.0568 4.62489 15.9312 5.31896 15.5681 5.76965L12.5725 9.33013L9.93997 9.69068C12.0097 7.1668 10.8023 4.85327 9.93997 4.012Z" fill="currentColor"/>
<path d="M12.5725 19.6059V17.1722H29.593C30.646 17.1722 30.9697 18.0435 31 18.4792V19.6059H12.5725Z" fill="currentColor"/>
<path d="M11.0293 19.6059C8.01552 19.9665 7.38311 22.0998 7.44363 23.1213C6.39063 19.2274 3.67643 19.4858 2.45095 20.1017V13.0258C2.70512 11.2951 4.00927 11.0728 4.62958 11.178H9.93997L13.2533 10.5921L16.2943 6.62598C16.8753 5.90487 17.8072 6.23538 18.2006 6.49077C18.7452 7.06767 18.4275 8.02313 18.2006 8.42874L15.5681 11.8991C14.8056 12.8365 13.9795 13.2211 13.6618 13.2962L11.0293 14.0173V19.6059Z" fill="currentColor"/>
<path d="M9.93997 6.62598C9.57687 9.14986 7.70083 9.72073 6.8082 9.69068C4.30278 9.69068 3.61591 7.64755 3.58565 6.62598C3.83982 4.17422 5.83992 3.65141 6.8082 3.69648C9.05944 3.69648 9.83407 5.64948 9.93997 6.62598Z" fill="currentColor"/>
<path d="M29.593 32H0V28.8001C0.835139 26.2401 2.73841 25.8405 3.58565 25.9607C2.73841 25.8105 1.07116 25.0954 1.18009 23.4368C1.11957 22.6746 1.51596 21.1026 3.58565 20.913C4.35725 20.8979 5.95491 21.3817 6.17277 23.4368C6.11951 24.1771 5.64687 25.5689 4.22291 25.8923C6.04772 25.9247 7.11689 27.98 7.44363 29.1156C7.95198 26.2311 10.0459 25.8105 11.0293 25.9607C10.2274 25.7955 8.62372 25.0593 8.62372 23.4368C8.68424 22.5955 9.25007 20.913 11.0293 20.913C11.7555 20.913 13.2987 21.4177 13.6618 23.4368C13.5877 24.1581 12.9791 25.6465 11.1446 25.9438C13.4995 25.6382 14.6498 27.9181 14.9327 29.1156C15.2523 26.6081 17.0492 25.9657 18.2179 25.9401C17.4328 25.8276 16.3227 25.2899 16.022 23.7072C15.9917 22.7758 16.4758 20.913 18.6545 20.913C19.532 21.0932 21.2234 21.9045 20.9693 23.7072C20.7476 25.2796 19.6582 25.8234 18.9416 25.9367C20.8665 25.8808 21.9371 27.9981 22.2401 29.1156C22.6965 26.5582 24.5531 25.9409 25.6941 25.9393C24.8687 25.8313 23.6536 25.2938 23.4656 23.7072C23.4202 22.7758 23.8741 20.913 26.0527 20.913C26.9453 20.9716 28.6398 21.6125 28.2767 23.7072C28.1708 24.3431 27.5777 25.6841 26.0527 25.9607C28.2676 25.7444 29.3358 27.7635 29.593 28.8001V32Z" fill="currentColor"/>
</svg>
