<svg  viewBox="0 0 33 32" fill="none" xmlns="http://www.w3.org/2000/svg">
<path d="M8.27335 29H11.8041M24.7267 29H21.1959M21.1959 29V25.521M21.1959 29H11.8041M21.1959 25.521H28.8929C29.9051 25.4282 31.9435 24.7416 32 22.7377V21.5548M21.1959 25.521C18.7992 25.521 15.1784 25.521 11.8041 25.521M11.8041 25.521C7.95386 25.521 4.42454 25.521 3.40091 25.521C1.48018 25.521 1 23.6655 1 22.7377V21.5548M11.8041 25.521V29M1 21.5548V5.13372C1.11298 2.51748 3.30676 1.95619 4.38952 2.00258H28.8929C31.2656 2.00258 31.9529 4.09001 32 5.13372V21.5548M1 21.5548H32M5.09567 7.56906H14.9818M14.9818 11.8135H5.09567M5.09567 15.9884H14.9818M27.9749 16.4754L25.2916 13.6226M25.2916 13.6226C25.9977 12.5789 26.9093 10.4915 25.2916 9.03026C24.4442 8.26487 22.467 6.73409 20.0661 8.47361C19.0068 9.65649 18.3995 11.4795 19.6424 13.2051C20.631 14.2256 23.1449 15.7379 25.2916 13.6226Z" stroke="currentColor" stroke-width="2"/>
</svg>
