<svg  viewBox="0 0 32 32" fill="none" xmlns="http://www.w3.org/2000/svg">
<path d="M32 5.33154C31.9995 4.33398 31.7193 3.35654 31.1913 2.51024C30.6633 1.66394 29.9085 0.982686 29.0128 0.543853C28.1171 0.105021 27.1163 -0.0738073 26.1241 0.0276783C25.1319 0.129164 24.188 0.506896 23.3996 1.11798C22.6113 1.72906 22.01 2.549 21.6642 3.48468C21.3184 4.42036 21.2418 5.43429 21.4432 6.4113C21.6446 7.38832 22.1159 8.28928 22.8035 9.01186C23.4912 9.73444 24.3676 10.2497 25.3333 10.4991V13.3329C25.3333 13.6866 25.1929 14.0258 24.9428 14.2759C24.6928 14.5259 24.3536 14.6664 24 14.6664H8.00001C7.64639 14.6664 7.30725 14.5259 7.0572 14.2759C6.80715 14.0258 6.66668 13.6866 6.66668 13.3329V10.4991C7.92355 10.1745 9.01893 9.40259 9.74748 8.32804C10.476 7.25348 10.7877 5.95006 10.6242 4.6621C10.4606 3.37413 9.83299 2.19004 8.85899 1.33177C7.88498 0.473512 6.63144 2.46417e-06 5.33334 2.46417e-06C4.03525 2.46417e-06 2.78171 0.473512 1.8077 1.33177C0.833694 2.19004 0.206087 3.37413 0.0425213 4.6621C-0.121045 5.95006 0.190661 7.25348 0.91921 8.32804C1.64776 9.40259 2.74313 10.1745 4.00001 10.4991V13.3329C4.00001 14.3939 4.42144 15.4115 5.17158 16.1618C5.92173 16.9121 6.93914 17.3336 8.00001 17.3336H14.6667V21.5009C13.4098 21.8255 12.3144 22.5974 11.5859 23.672C10.8573 24.7465 10.5456 26.0499 10.7092 27.3379C10.8727 28.6259 11.5004 29.81 12.4744 30.6682C13.4484 31.5265 14.7019 32 16 32C17.2981 32 18.5516 31.5265 19.5256 30.6682C20.4997 29.81 21.1273 28.6259 21.2908 27.3379C21.4544 26.0499 21.1427 24.7465 20.4141 23.672C19.6856 22.5974 18.5902 21.8255 17.3333 21.5009V17.3336H24C25.0609 17.3336 26.0783 16.9121 26.8284 16.1618C27.5786 15.4115 28 14.3939 28 13.3329V10.4991C29.1444 10.2018 30.1579 9.5332 30.8818 8.59809C31.6056 7.66297 31.9989 6.51414 32 5.33154ZM2.66668 5.33154C2.66668 4.80404 2.82308 4.28838 3.11609 3.84977C3.40911 3.41117 3.82559 3.06932 4.31286 2.86745C4.80012 2.66558 5.3363 2.61276 5.85358 2.71568C6.37087 2.81859 6.84602 3.0726 7.21896 3.44561C7.5919 3.81861 7.84588 4.29384 7.94877 4.81121C8.05166 5.32858 7.99886 5.86485 7.79702 6.3522C7.59519 6.83955 7.25339 7.2561 6.81486 7.54917C6.37633 7.84223 5.86076 7.99866 5.33334 7.99866C4.6261 7.99866 3.94782 7.71766 3.44773 7.21748C2.94763 6.7173 2.66668 6.03891 2.66668 5.33154ZM18.6667 26.6685C18.6667 27.196 18.5103 27.7116 18.2173 28.1502C17.9242 28.5888 17.5078 28.9307 17.0205 29.1326C16.5332 29.3344 15.997 29.3872 15.4798 29.2843C14.9625 29.1814 14.4873 28.9274 14.1144 28.5544C13.7415 28.1814 13.4875 27.7062 13.3846 27.1888C13.2817 26.6714 13.3345 26.1352 13.5363 25.6478C13.7382 25.1604 14.08 24.7439 14.5185 24.4508C14.957 24.1578 15.4726 24.0013 16 24.0013C16.7073 24.0013 17.3855 24.2823 17.8856 24.7825C18.3857 25.2827 18.6667 25.9611 18.6667 26.6685ZM26.6667 7.99866C26.1393 7.99866 25.6237 7.84223 25.1851 7.54917C24.7466 7.2561 24.4048 6.83955 24.203 6.3522C24.0012 5.86485 23.9483 5.32858 24.0512 4.81121C24.1541 4.29384 24.4081 3.81861 24.7811 3.44561C25.154 3.0726 25.6291 2.81859 26.1464 2.71568C26.6637 2.61276 27.1999 2.66558 27.6872 2.86745C28.1744 3.06932 28.5909 3.41117 28.8839 3.84977C29.1769 4.28838 29.3333 4.80404 29.3333 5.33154C29.3333 6.03891 29.0524 6.7173 28.5523 7.21748C28.0522 7.71766 27.3739 7.99866 26.6667 7.99866Z" fill="currentColor"/>
</svg>
