<svg viewBox="0 0 32 32" fill="none" xmlns="http://www.w3.org/2000/svg">
<path d="M27.047 21.4296L27.0469 21.5001L27.0394 26.2776L27.0392 26.3583L26.9692 26.3182L24.9692 25.1732L27.047 21.4296ZM27.047 21.4296L26.9819 21.4567M27.047 21.4296L26.9819 21.4567M26.9819 21.4567C26.1957 21.7852 25.3521 21.9544 24.5 21.9544C23.6479 21.9544 22.8043 21.7852 22.0181 21.4567L21.9531 21.4296M26.9819 21.4567L21.9531 21.4296M21.9531 21.4296V21.5M21.9531 21.4296V21.5M21.9531 21.5V26.2775V26.3583M21.9531 21.5V26.3583M21.9531 26.3583L22.0233 26.3182M21.9531 26.3583L22.0233 26.3182M22.0233 26.3182L24.0233 25.1732M22.0233 26.3182L24.0233 25.1732M24.0233 25.1732L24.0233 25.1732C24.1673 25.0909 24.3303 25.0476 24.4963 25.0476C24.6622 25.0476 24.8252 25.0909 24.9692 25.1732L24.0233 25.1732ZM28.9676 20.1499L28.9531 20.1637V20.1838L28.9531 28L28.9531 28.0004C28.9546 28.1685 28.9117 28.3339 28.8287 28.48C28.7456 28.6261 28.6254 28.7476 28.4803 28.8323C28.3351 28.917 28.1702 28.9617 28.0021 28.9621C27.8341 28.9625 27.669 28.9184 27.5234 28.8344L27.5233 28.8343L24.5233 27.1168L24.5 27.1035L24.4767 27.1168L21.4767 28.8343L21.4766 28.8344C21.331 28.9184 21.1659 28.9625 20.9979 28.9621C20.8298 28.9617 20.6649 28.917 20.5197 28.8323C20.3746 28.7476 20.2544 28.6261 20.1713 28.48C20.0883 28.3339 20.0454 28.1685 20.0469 28.0004V28V25V24.9531H20H5C4.482 24.9531 3.98521 24.7473 3.61893 24.3811C3.25265 24.0148 3.04688 23.518 3.04688 23V7C3.04688 6.482 3.25265 5.98521 3.61893 5.61893C3.98521 5.25265 4.482 5.04688 5 5.04688H27C27.518 5.04688 28.0148 5.25265 28.3811 5.61893C28.7473 5.98521 28.9531 6.482 28.9531 7V10.8162V10.8363L28.9676 10.8501C29.5952 11.4511 30.0946 12.1729 30.4358 12.972C30.777 13.7711 30.9528 14.6311 30.9528 15.5C30.9528 16.3689 30.777 17.2289 30.4358 18.028C30.0946 18.8271 29.5952 19.5489 28.9676 20.1499ZM20 23.0469H20.0469V23V20.1838V20.1638L20.0325 20.15C18.9507 19.1066 18.2669 17.7183 18.0993 16.2247C17.9317 14.731 18.2908 13.2257 19.1145 11.9685C19.9382 10.7113 21.1749 9.78102 22.6113 9.33827C24.0476 8.89552 25.5935 8.96804 26.9821 9.54331L27.0469 9.57016V9.5V7V6.95312H27H5H4.95312V7V23V23.0469H5H20ZM15.9531 17C15.9531 17.2528 15.8527 17.4952 15.674 17.674C15.4952 17.8527 15.2528 17.9531 15 17.9531H9C8.74722 17.9531 8.50478 17.8527 8.32604 17.674C8.14729 17.4952 8.04688 17.2528 8.04688 17C8.04688 16.7472 8.14729 16.5048 8.32604 16.326C8.50478 16.1473 8.74722 16.0469 9 16.0469H15C15.2528 16.0469 15.4952 16.1473 15.674 16.326C15.8527 16.5048 15.9531 16.7472 15.9531 17ZM9 12.0469H15C15.2528 12.0469 15.4952 12.1473 15.674 12.326C15.8527 12.5048 15.9531 12.7472 15.9531 13C15.9531 13.2528 15.8527 13.4952 15.674 13.674C15.4952 13.8527 15.2528 13.9531 15 13.9531H9C8.74722 13.9531 8.50478 13.8527 8.32604 13.674C8.14729 13.4952 8.04688 13.2528 8.04688 13C8.04688 12.7472 8.14729 12.5048 8.32604 12.326C8.50478 12.1473 8.74722 12.0469 9 12.0469ZM29.0469 15.5C29.0469 14.6007 28.7802 13.7216 28.2806 12.9739C27.781 12.2262 27.0708 11.6434 26.24 11.2992C25.4092 10.9551 24.495 10.865 23.6129 11.0405C22.7309 11.2159 21.9208 11.649 21.2849 12.2849C20.649 12.9208 20.2159 13.7309 20.0405 14.6129C19.865 15.495 19.9551 16.4092 20.2992 17.24C20.6434 18.0708 21.2262 18.781 21.9739 19.2806C22.7216 19.7802 23.6007 20.0469 24.5 20.0469C25.0971 20.0469 25.6884 19.9293 26.24 19.7008C26.7917 19.4723 27.2929 19.1373 27.7151 18.7151C28.1373 18.2929 28.4723 17.7917 28.7008 17.24C28.9293 16.6884 29.0469 16.0971 29.0469 15.5Z" fill="currentColor" stroke="currentColor" stroke-width="0.09375"/>
</svg>
