<svg  viewBox="0 0 26 26"  xmlns="http://www.w3.org/2000/svg">
<path d="M20.8878 19.7381C20.9633 19.8136 21.0232 19.9032 21.064 20.0019C21.1049 20.1005 21.1259 20.2062 21.1259 20.313C21.1259 20.4197 21.1049 20.5254 21.064 20.6241C21.0232 20.7227 20.9633 20.8123 20.8878 20.8878C20.8123 20.9633 20.7227 21.0232 20.6241 21.064C20.5254 21.1049 20.4197 21.1259 20.313 21.1259C20.2062 21.1259 20.1005 21.1049 20.0019 21.064C19.9032 21.0232 19.8136 20.9633 19.7381 20.8878L13.0005 14.1491L6.2628 20.8878C6.11034 21.0403 5.90356 21.1259 5.68795 21.1259C5.47234 21.1259 5.26557 21.0403 5.11311 20.8878C4.96065 20.7353 4.875 20.5286 4.875 20.313C4.875 20.0973 4.96065 19.8906 5.11311 19.7381L11.8518 13.0005L5.11311 6.2628C4.96065 6.11034 4.875 5.90356 4.875 5.68795C4.875 5.47234 4.96065 5.26557 5.11311 5.11311C5.26557 4.96065 5.47234 4.875 5.68795 4.875C5.90356 4.875 6.11034 4.96065 6.2628 5.11311L13.0005 11.8518L19.7381 5.11311C19.8906 4.96065 20.0973 4.875 20.313 4.875C20.5286 4.875 20.7353 4.96065 20.8878 5.11311C21.0403 5.26557 21.1259 5.47234 21.1259 5.68795C21.1259 5.90356 21.0403 6.11034 20.8878 6.2628L14.1491 13.0005L20.8878 19.7381Z" fill="currentColor"/>
</svg>
