<svg  viewBox="0 0 36 36" fill="none" xmlns="http://www.w3.org/2000/svg">
<path d="M19.5 3H9C8.20435 3 7.44129 3.31607 6.87868 3.87868C6.31607 4.44129 6 5.20435 6 6V30C6 30.7956 6.31607 31.5587 6.87868 32.1213C7.44129 32.6839 8.20435 33 9 33H27C27.7956 33 28.5587 32.6839 29.1213 32.1213C29.6839 31.5587 30 30.7956 30 30V13.5L19.5 3Z" stroke="currentColor" stroke-width="2" stroke-linecap="round" stroke-linejoin="round"/>
<path d="M19.5 3V13.5H30" stroke="currentColor" stroke-width="2" stroke-linecap="round" stroke-linejoin="round"/>
<path d="M13.95 20.3C14.362 20.3 14.71 20.44 14.994 20.72C15.278 21 15.42 21.34 15.42 21.74C15.42 22.14 15.278 22.48 14.994 22.76C14.71 23.04 14.362 23.18 13.95 23.18H13.32V24.5H12.36V20.3H13.95ZM13.95 22.28C14.098 22.28 14.22 22.228 14.316 22.124C14.412 22.02 14.46 21.892 14.46 21.74C14.46 21.588 14.412 21.46 14.316 21.356C14.22 21.252 14.098 21.2 13.95 21.2H13.32V22.28H13.95ZM17.5791 20.3C18.1591 20.3 18.6431 20.502 19.0311 20.906C19.4231 21.306 19.6191 21.804 19.6191 22.4C19.6191 22.996 19.4231 23.496 19.0311 23.9C18.6431 24.3 18.1591 24.5 17.5791 24.5H15.8991V20.3H17.5791ZM17.5791 23.576C17.9111 23.576 18.1791 23.47 18.3831 23.258C18.5911 23.042 18.6951 22.756 18.6951 22.4C18.6951 22.044 18.5911 21.76 18.3831 21.548C18.1791 21.332 17.9111 21.224 17.5791 21.224H16.8591V23.576H17.5791ZM22.7088 21.224H21.1188V22.034H22.6788V22.958H21.1188V24.5H20.1588V20.3H22.7088V21.224Z" fill="#7095A7"/>
</svg>
