<svg  viewBox="0 0 36 36" fill="none" xmlns="http://www.w3.org/2000/svg">
<g clip-path="url(#clip0_6321_15792)">
<path d="M18 36C8.0745 36 0 27.9255 0 18C0 8.0745 8.0745 0 18 0C27.9255 0 36 8.0745 36 18C36 27.9255 27.9255 36 18 36ZM18 3C9.315 3 3 9.315 3 18C3 26.685 9.315 33 18 33C26.685 33 33 26.685 33 18C33 9.315 26.685 3 18 3Z" fill="currentColor"/>
<path d="M14.3324 27.1954C14.1869 27.1954 14.0414 27.1669 13.9019 27.1099C13.4819 26.9359 13.2074 26.5249 13.2074 26.0704V21.6679C13.2074 21.3694 13.3259 21.0829 13.5374 20.8729L14.1974 20.2114L11.8454 21.2329C11.5034 21.3829 11.1074 21.3514 10.7924 21.1489L6.38995 18.3424C6.03295 18.1144 5.83495 17.7064 5.87545 17.2849C5.91595 16.8635 6.19045 16.5005 6.58495 16.346L25.6619 8.88195C26.0414 8.73195 26.4719 8.80095 26.7869 9.06045C27.1019 9.31995 27.2519 9.72945 27.1799 10.13L24.2444 26.2715C24.1799 26.6194 23.9579 26.9179 23.6399 27.077C23.3234 27.2344 22.9514 27.2344 22.6349 27.077L17.4899 24.5044L15.1289 26.8654C14.9114 27.0814 14.6249 27.1954 14.3324 27.1954ZM17.2664 22.0114C17.4374 22.0114 17.6099 22.0505 17.7689 22.1299L22.2989 24.3934L24.6044 11.711L9.46645 17.636L11.4974 18.932L18.7229 15.797C19.2179 15.5825 19.7969 15.7505 20.1014 16.196C20.4044 16.643 20.3489 17.2414 19.9664 17.6239L15.4559 22.1344V23.3539L16.4699 22.3399C16.6859 22.1254 16.9739 22.0114 17.2664 22.0114Z" fill="currentColor"/>
</g>
<defs>
<clipPath id="clip0_6321_15792">
<rect width="36" height="36" fill="currentColor"/>
</clipPath>
</defs>
</svg>
