<svg width="32" height="32" viewBox="0 0 32 32" fill="none" xmlns="http://www.w3.org/2000/svg">
<mask id="path-1-inside-1_6182_8044" fill="white">
<path d="M28.8648 26.5005C26.9611 23.2092 24.0273 20.8492 20.6036 19.7305C22.2971 18.7223 23.6129 17.1861 24.3489 15.3577C25.0848 13.5294 25.2002 11.51 24.6774 9.60967C24.1546 7.70936 23.0224 6.03321 21.4548 4.83863C19.8872 3.64404 17.9708 2.99707 15.9998 2.99707C14.0289 2.99707 12.1125 3.64404 10.5449 4.83863C8.97725 6.03321 7.84509 7.70936 7.32228 9.60967C6.79946 11.51 6.91488 13.5294 7.65083 15.3577C8.38678 17.1861 9.70256 18.7223 11.3961 19.7305C7.97235 20.848 5.0386 23.208 3.13485 26.5005C3.06504 26.6143 3.01873 26.741 2.99866 26.873C2.97859 27.005 2.98517 27.1397 3.01801 27.2692C3.05084 27.3986 3.10927 27.5201 3.18984 27.6266C3.27041 27.7331 3.3715 27.8224 3.48713 27.8892C3.60277 27.956 3.73061 27.9989 3.86311 28.0155C3.99561 28.0321 4.1301 28.022 4.25863 27.9858C4.38716 27.9495 4.50713 27.8879 4.61146 27.8046C4.71579 27.7212 4.80238 27.6178 4.8661 27.5005C7.2211 23.4305 11.3836 21.0005 15.9998 21.0005C20.6161 21.0005 24.7786 23.4305 27.1336 27.5005C27.1973 27.6178 27.2839 27.7212 27.3882 27.8046C27.4926 27.8879 27.6125 27.9495 27.7411 27.9858C27.8696 28.022 28.0041 28.0321 28.1366 28.0155C28.2691 27.9989 28.3969 27.956 28.5126 27.8892C28.6282 27.8224 28.7293 27.7331 28.8099 27.6266C28.8904 27.5201 28.9489 27.3986 28.9817 27.2692C29.0145 27.1397 29.0211 27.005 29.001 26.873C28.981 26.741 28.9347 26.6143 28.8648 26.5005ZM8.99985 12.0005C8.99985 10.616 9.41039 9.26262 10.1796 8.11148C10.9487 6.96034 12.042 6.06313 13.3211 5.53331C14.6001 5.0035 16.0076 4.86488 17.3655 5.13497C18.7233 5.40507 19.9706 6.07176 20.9496 7.05072C21.9286 8.02969 22.5952 9.27697 22.8653 10.6348C23.1354 11.9927 22.9968 13.4002 22.467 14.6793C21.9372 15.9583 21.04 17.0516 19.8888 17.8208C18.7377 18.5899 17.3843 19.0005 15.9998 19.0005C14.1439 18.9985 12.3646 18.2604 11.0523 16.948C9.73997 15.6357 9.00184 13.8564 8.99985 12.0005Z"/>
</mask>
<path d="M28.8648 26.5005L25.4024 28.5033L25.4281 28.5478L25.455 28.5917L28.8648 26.5005ZM20.6036 19.7305L18.5575 16.2934L10.9912 20.7976L19.3612 23.5326L20.6036 19.7305ZM15.9998 2.99707V-1.00293V2.99707ZM11.3961 19.7305L12.6372 23.533L21.0118 20.7996L13.4422 16.2934L11.3961 19.7305ZM3.13485 26.5005L6.54467 28.5917L6.57174 28.5475L6.59766 28.5027L3.13485 26.5005ZM4.8661 27.5005L1.40391 25.4972L1.37677 25.5441L1.35092 25.5917L4.8661 27.5005ZM27.1336 27.5005L30.6488 25.5917L30.6229 25.5441L30.5958 25.4972L27.1336 27.5005ZM8.99985 12.0005H4.99985L4.99985 12.0048L8.99985 12.0005ZM15.9998 19.0005L15.9956 23.0005H15.9998V19.0005ZM32.3273 24.4977C29.9391 20.3688 26.2225 17.3584 21.846 15.9283L19.3612 23.5326C21.8322 24.3401 23.9831 26.0496 25.4024 28.5033L32.3273 24.4977ZM22.6497 23.1675C25.0959 21.7113 26.9965 19.4923 28.0595 16.8513L20.6382 13.8641C20.2293 14.8798 19.4983 15.7333 18.5575 16.2934L22.6497 23.1675ZM28.0595 16.8513C29.1226 14.2104 29.2893 11.2935 28.5341 8.5486L20.8207 10.6707C21.1112 11.7265 21.0471 12.8483 20.6382 13.8641L28.0595 16.8513ZM28.5341 8.5486C27.7789 5.80371 26.1436 3.38261 23.8792 1.6571L19.0304 8.02016C19.9013 8.68382 20.5303 9.61501 20.8207 10.6707L28.5341 8.5486ZM23.8792 1.6571C21.6149 -0.0684168 18.8467 -1.00293 15.9998 -1.00293V6.99707C17.0948 6.99707 18.1595 7.3565 19.0304 8.02016L23.8792 1.6571ZM15.9998 -1.00293C13.153 -1.00293 10.3848 -0.0684168 8.12045 1.6571L12.9693 8.02016C13.8402 7.3565 14.9049 6.99707 15.9998 6.99707V-1.00293ZM8.12045 1.6571C5.8561 3.38261 4.22076 5.80371 3.46558 8.5486L11.179 10.6707C11.4694 9.61501 12.0984 8.68382 12.9693 8.02016L8.12045 1.6571ZM3.46558 8.5486C2.71039 11.2935 2.87712 14.2104 3.94016 16.8513L11.3615 13.8641C10.9526 12.8483 10.8885 11.7265 11.179 10.6707L3.46558 8.5486ZM3.94016 16.8513C5.0032 19.4923 6.90376 21.7113 9.34999 23.1675L13.4422 16.2934C12.5014 15.7333 11.7704 14.8798 11.3615 13.8641L3.94016 16.8513ZM10.155 15.9279C5.77723 17.3568 2.06025 20.3679 -0.327965 24.4982L6.59766 28.5027C8.01695 26.0481 10.1675 24.3392 12.6372 23.533L10.155 15.9279ZM-0.274968 24.4093C-0.62404 24.9784 -0.855573 25.6118 -0.955913 26.2719L6.95324 27.4741C6.89303 27.8702 6.75411 28.2502 6.54467 28.5917L-0.274968 24.4093ZM-0.955913 26.2719C-1.05625 26.932 -1.02337 27.6055 -0.859191 28.2527L6.8952 26.2856C6.99371 26.6739 7.01344 27.078 6.95324 27.4741L-0.955913 26.2719ZM-0.859191 28.2527C-0.695016 28.8999 -0.402879 29.5076 -1.95503e-05 30.0401L6.3797 25.2132C6.62141 25.5326 6.7967 25.8973 6.8952 26.2856L-0.859191 28.2527ZM-1.95503e-05 30.0401C0.40284 30.5726 0.908265 31.0189 1.48644 31.3529L5.48783 24.4255C5.83473 24.6259 6.13798 24.8937 6.3797 25.2132L-1.95503e-05 30.0401ZM1.48644 31.3529C2.06463 31.6869 2.70383 31.9016 3.36633 31.9846L4.35989 24.0465C4.75738 24.0962 5.1409 24.2251 5.48783 24.4255L1.48644 31.3529ZM3.36633 31.9846C4.02883 32.0675 4.70125 32.0169 5.34392 31.8357L3.17334 24.1358C3.55895 24.0271 3.9624 23.9967 4.35989 24.0465L3.36633 31.9846ZM5.34392 31.8357C5.98657 31.6546 6.58642 31.3465 7.10808 30.9298L2.11484 24.6794C2.42783 24.4293 2.78774 24.2445 3.17334 24.1358L5.34392 31.8357ZM7.10808 30.9298C7.62975 30.513 8.06266 29.996 8.38128 29.4093L1.35092 25.5917C1.54209 25.2396 1.80184 24.9294 2.11484 24.6794L7.10808 30.9298ZM8.32829 29.5038C9.98469 26.6411 12.8438 25.0005 15.9998 25.0005V17.0005C9.9234 17.0005 4.45751 20.2198 1.40391 25.4972L8.32829 29.5038ZM15.9998 25.0005C19.1559 25.0005 22.015 26.6411 23.6714 29.5038L30.5958 25.4972C27.5422 20.2198 22.0763 17.0005 15.9998 17.0005V25.0005ZM23.6184 29.4093C23.937 29.996 24.37 30.513 24.8916 30.9298L29.8849 24.6794C30.1979 24.9294 30.4576 25.2396 30.6488 25.5917L23.6184 29.4093ZM24.8916 30.9298C25.4133 31.3465 26.0131 31.6545 26.6558 31.8357L28.8264 24.1358C29.212 24.2445 29.5719 24.4293 29.8849 24.6794L24.8916 30.9298ZM26.6558 31.8357C27.2985 32.0169 27.9709 32.0675 28.6334 31.9846L27.6398 24.0465C28.0373 23.9967 28.4407 24.0271 28.8264 24.1358L26.6558 31.8357ZM28.6334 31.9846C29.2959 31.9016 29.9351 31.6869 30.5133 31.3529L26.5119 24.4255C26.8588 24.2251 27.2423 24.0962 27.6398 24.0465L28.6334 31.9846ZM30.5133 31.3529C31.0914 31.0189 31.5968 30.5726 31.9997 30.0401L25.62 25.2132C25.8617 24.8937 26.165 24.6259 26.5119 24.4255L30.5133 31.3529ZM31.9997 30.0401C32.4026 29.5076 32.6947 28.8999 32.8589 28.2527L25.1045 26.2856C25.203 25.8973 25.3783 25.5327 25.62 25.2132L31.9997 30.0401ZM32.8589 28.2527C33.0231 27.6055 33.056 26.932 32.9556 26.2719L25.0465 27.4741C24.9863 27.078 25.006 26.6739 25.1045 26.2856L32.8589 28.2527ZM32.9556 26.2719C32.8553 25.6118 32.6237 24.9785 32.2747 24.4093L25.455 28.5917C25.2456 28.2502 25.1067 27.8702 25.0465 27.4741L32.9556 26.2719ZM12.9999 12.0005C12.9999 11.4071 13.1758 10.8271 13.5054 10.3338L6.85368 5.8892C5.64499 7.69814 4.99985 9.82488 4.99985 12.0005H12.9999ZM13.5054 10.3338C13.8351 9.84041 14.3036 9.45589 14.8518 9.22883L11.7903 1.8378C9.78034 2.67036 8.06238 4.08026 6.85368 5.8892L13.5054 10.3338ZM14.8518 9.22883C15.4 9.00177 16.0032 8.94236 16.5851 9.05812L18.1458 1.21183C16.0121 0.787395 13.8003 1.00523 11.7903 1.8378L14.8518 9.22883ZM16.5851 9.05812C17.1671 9.17387 17.7016 9.45959 18.1212 9.87915L23.778 4.2223C22.2396 2.68392 20.2796 1.63627 18.1458 1.21183L16.5851 9.05812ZM18.1212 9.87915C18.5407 10.2987 18.8264 10.8333 18.9422 11.4152L26.7885 9.85448C26.364 7.72069 25.3164 5.76067 23.778 4.2223L18.1212 9.87915ZM18.9422 11.4152C19.058 11.9971 18.9986 12.6003 18.7715 13.1485L26.1625 16.21C26.9951 14.2 27.2129 11.9883 26.7885 9.85448L18.9422 11.4152ZM18.7715 13.1485C18.5444 13.6967 18.1599 14.1652 17.6666 14.4949L22.1111 21.1466C23.9201 19.9379 25.33 18.22 26.1625 16.21L18.7715 13.1485ZM17.6666 14.4949C17.1732 14.8245 16.5932 15.0005 15.9998 15.0005V23.0005C18.1754 23.0005 20.3022 22.3553 22.1111 21.1466L17.6666 14.4949ZM16.0041 15.0005C15.2076 14.9996 14.4439 14.6828 13.8807 14.1196L8.22387 19.7765C10.2853 21.8379 13.0803 22.9974 15.9956 23.0005L16.0041 15.0005ZM13.8807 14.1196C13.3175 13.5564 13.0007 12.7927 12.9998 11.9962L4.99985 12.0048C5.00297 14.92 6.16245 17.715 8.22387 19.7765L13.8807 14.1196Z" fill="#95CE74" mask="url(#path-1-inside-1_6182_8044)"/>
</svg>
