<svg width="36" height="36" viewBox="0 0 36 36" fill="none" xmlns="http://www.w3.org/2000/svg">
<g clip-path="url(#clip0_5772_1083)">
<path d="M18 36C8.0745 36 0 27.9255 0 18C0 8.0745 8.0745 0 18 0C27.9255 0 36 8.0745 36 18C36 27.9255 27.9255 36 18 36ZM18 3C9.315 3 3 9.315 3 18C3 26.685 9.315 33 18 33C26.685 33 33 26.685 33 18C33 9.315 26.685 3 18 3Z" fill="#95CE74"/>
<path fill-rule="evenodd" clip-rule="evenodd" d="M26.3013 14.3452C26.0492 14.1586 25.1432 14.1586 24.2465 14.1586C23.331 14.1772 22.4153 14.1772 22.2004 14.2614C22.0047 14.336 21.5656 15.4009 20.996 16.4935C20.3415 17.7271 19.548 18.9226 19.0433 18.9032C18.3803 18.9032 18.5393 16.8764 18.5859 15.3729C18.5949 14.3918 18.4362 14.074 18.2961 13.9905C17.9504 13.7473 16.9979 13.5144 16.9979 13.5144C16.9979 13.5144 14.1389 13.2991 13.7377 14.5322C14.2886 14.607 15.2229 14.4384 14.8585 18.2588C14.8306 18.4461 14.4194 20.0152 13.0929 17.8945C12.7565 17.3626 11.4866 14.1772 11.0381 14.1586C9.57089 14.1303 8.1143 14.065 7.6103 14.3452C7.13351 14.6256 8.24508 16.8112 10.1228 19.7447C11.645 22.1544 13.2612 24.023 16.0636 24.4897C16.596 24.5462 17.9601 24.6015 18.3993 24.3965C18.6883 24.2561 18.3241 22.1828 19.3238 21.9767C19.763 21.893 21.4718 24.1443 22.1162 24.3965C22.5095 24.5552 23.3685 24.6205 24.2465 24.5828C25.1994 24.5552 26.2823 24.6767 26.3851 24.0229C26.6191 22.5936 23.4996 20.7248 23.4151 19.847C23.3403 19.2119 24.555 18.0444 25.1711 17.1475C25.9367 16.0639 26.7781 14.7564 26.3013 14.3452Z" fill="#95CE74"/>
</g>
<defs>
<clipPath id="clip0_5772_1083">
<rect width="36" height="36" fill="white"/>
</clipPath>
</defs>
</svg>
